<?xml version='1.0' encoding='utf-8'?>
<svg xmlns="http://www.w3.org/2000/svg" viewBox="0 0 800.0 398.22222222222223" width="800.0" height="398.22222222222223"><title>fine-tunes</title><style>
        text {
            font-family: "Courier New", Courier, monospace;
            font-size: 14px;
            dominant-baseline: hanging;
        }
    </style><text x="186.66666666666669" y="113.77777777777779" fill="rgb(197,255,111)">·</text><text x="195.55555555555557" y="113.77777777777779" fill="rgb(216,255,172)">○</text><text x="204.44444444444446" y="113.77777777777779" fill="rgb(227,255,203)">○</text><text x="213.33333333333334" y="113.77777777777779" fill="rgb(229,255,213)">◉</text><text x="222.22222222222223" y="113.77777777777779" fill="rgb(228,255,215)">◉</text><text x="231.11111111111111" y="113.77777777777779" fill="rgb(224,255,214)">◉</text><text x="240.0" y="113.77777777777779" fill="rgb(219,255,210)">◉</text><text x="248.8888888888889" y="113.77777777777779" fill="rgb(202,255,194)">○</text><text x="257.77777777777777" y="113.77777777777779" fill="rgb(158,255,152)">*</text><text x="266.6666666666667" y="113.77777777777779" fill="rgb(82,255,82)">.</text><text x="320.0" y="113.77777777777779" fill="rgb(103,255,163)">·</text><text x="328.8888888888889" y="113.77777777777779" fill="rgb(166,255,207)">*</text><text x="337.77777777777777" y="113.77777777777779" fill="rgb(202,255,230)">○</text><text x="346.6666666666667" y="113.77777777777779" fill="rgb(213,255,238)">◉</text><text x="355.55555555555554" y="113.77777777777779" fill="rgb(214,255,241)">◉</text><text x="364.44444444444446" y="113.77777777777779" fill="rgb(214,255,244)">◉</text><text x="373.33333333333337" y="113.77777777777779" fill="rgb(211,255,246)">◉</text><text x="382.22222222222223" y="113.77777777777779" fill="rgb(198,255,247)">○</text><text x="391.11111111111114" y="113.77777777777779" fill="rgb(159,255,248)">*</text><text x="400.0" y="113.77777777777779" fill="rgb(92,255,255)">·</text><text x="453.33333333333337" y="113.77777777777779" fill="rgb(94,190,255)">·</text><text x="462.22222222222223" y="113.77777777777779" fill="rgb(160,210,255)">*</text><text x="471.11111111111114" y="113.77777777777779" fill="rgb(199,225,255)">○</text><text x="480.0" y="113.77777777777779" fill="rgb(211,229,255)">◉</text><text x="488.8888888888889" y="113.77777777777779" fill="rgb(213,227,255)">◉</text><text x="497.7777777777778" y="113.77777777777779" fill="rgb(214,224,255)">◉</text><text x="506.6666666666667" y="113.77777777777779" fill="rgb(213,221,255)">◉</text><text x="515.5555555555555" y="113.77777777777779" fill="rgb(201,208,255)">○</text><text x="524.4444444444445" y="113.77777777777779" fill="rgb(164,170,255)">*</text><text x="533.3333333333334" y="113.77777777777779" fill="rgb(98,98,255)">·</text><text x="586.6666666666667" y="113.77777777777779" fill="rgb(152,85,255)">·</text><text x="595.5555555555555" y="113.77777777777779" fill="rgb(200,152,255)">*</text><text x="604.4444444444445" y="113.77777777777779" fill="rgb(227,195,255)">○</text><text x="613.3333333333334" y="113.77777777777779" fill="rgb(237,211,255)">◉</text><text x="622.2222222222223" y="113.77777777777779" fill="rgb(240,211,255)">◉</text><text x="631.1111111111111" y="113.77777777777779" fill="rgb(242,208,255)">○</text><text x="640.0" y="113.77777777777779" fill="rgb(246,211,255)">◉</text><text x="648.8888888888889" y="113.77777777777779" fill="rgb(248,203,255)">○</text><text x="657.7777777777778" y="113.77777777777779" fill="rgb(249,171,255)">○</text><text x="666.6666666666667" y="113.77777777777779" fill="rgb(255,109,255)">·</text><text x="168.88888888888889" y="128.0" fill="rgb(223,255,138)">*</text><text x="177.77777777777777" y="128.0" fill="rgb(244,255,224)">◉</text><text x="186.66666666666669" y="128.0" fill="rgb(241,255,222)">◉</text><text x="195.55555555555557" y="128.0" fill="rgb(209,255,158)">*</text><text x="204.44444444444446" y="128.0" fill="rgb(170,255,97)">·</text><text x="213.33333333333334" y="128.0" fill="rgb(139,255,62)">.</text><text x="222.22222222222223" y="128.0" fill="rgb(115,255,46)">.</text><text x="231.11111111111111" y="128.0" fill="rgb(103,255,48)">.</text><text x="240.0" y="128.0" fill="rgb(108,255,72)">.</text><text x="248.8888888888889" y="128.0" fill="rgb(134,255,116)">·</text><text x="257.77777777777777" y="128.0" fill="rgb(188,255,184)">○</text><text x="266.6666666666667" y="128.0" fill="rgb(234,255,234)">◉</text><text x="275.55555555555554" y="128.0" fill="rgb(201,255,204)">○</text><text x="284.44444444444446" y="128.0" fill="rgb(89,255,112)">·</text><text x="302.22222222222223" y="128.0" fill="rgb(121,255,157)">·</text><text x="311.11111111111114" y="128.0" fill="rgb(217,255,229)">◉</text><text x="320.0" y="128.0" fill="rgb(225,255,237)">◉</text><text x="328.8888888888889" y="128.0" fill="rgb(164,255,207)">*</text><text x="337.77777777777777" y="128.0" fill="rgb(103,255,184)">·</text><text x="346.6666666666667" y="128.0" fill="rgb(65,255,179)">.</text><text x="355.55555555555554" y="128.0" fill="rgb(48,255,185)">.</text><text x="364.44444444444446" y="128.0" fill="rgb(48,255,199)">.</text><text x="373.33333333333337" y="128.0" fill="rgb(69,255,217)">.</text><text x="382.22222222222223" y="128.0" fill="rgb(110,255,235)">·</text><text x="391.11111111111114" y="128.0" fill="rgb(176,255,249)">○</text><text x="400.0" y="128.0" fill="rgb(229,255,255)">◉</text><text x="408.8888888888889" y="128.0" fill="rgb(210,252,255)">◉</text><text x="417.77777777777777" y="128.0" fill="rgb(105,234,255)">·</text><text x="435.5555555555556" y="128.0" fill="rgb(106,215,255)">·</text><text x="444.44444444444446" y="128.0" fill="rgb(210,240,255)">◉</text><text x="453.33333333333337" y="128.0" fill="rgb(231,245,255)">◉</text><text x="462.22222222222223" y="128.0" fill="rgb(176,218,255)">○</text><text x="471.11111111111114" y="128.0" fill="rgb(109,177,255)">·</text><text x="480.0" y="128.0" fill="rgb(68,142,255)">.</text><text x="488.8888888888889" y="128.0" fill="rgb(48,116,255)">.</text><text x="497.7777777777778" y="128.0" fill="rgb(47,102,255)">.</text><text x="506.6666666666667" y="128.0" fill="rgb(65,103,255)">.</text><text x="515.5555555555555" y="128.0" fill="rgb(104,124,255)">·</text><text x="524.4444444444445" y="128.0" fill="rgb(168,173,255)">○</text><text x="533.3333333333334" y="128.0" fill="rgb(228,228,255)">◉</text><text x="542.2222222222223" y="128.0" fill="rgb(218,216,255)">◉</text><text x="551.1111111111111" y="128.0" fill="rgb(137,119,255)">·</text><text x="568.8888888888889" y="128.0" fill="rgb(134,90,255)">·</text><text x="577.7777777777778" y="128.0" fill="rgb(220,203,255)">○</text><text x="586.6666666666667" y="128.0" fill="rgb(242,234,255)">◉</text><text x="595.5555555555555" y="128.0" fill="rgb(216,182,255)">○</text><text x="604.4444444444445" y="128.0" fill="rgb(190,116,255)">·</text><text x="613.3333333333334" y="128.0" fill="rgb(181,70,255)">.</text><text x="622.2222222222223" y="128.0" fill="rgb(194,72,255)">.</text><text x="631.1111111111111" y="128.0" fill="rgb(212,94,255)">·</text><text x="640.0" y="128.0" fill="rgb(220,80,255)">.</text><text x="648.8888888888889" y="128.0" fill="rgb(233,97,255)">·</text><text x="657.7777777777778" y="128.0" fill="rgb(248,158,255)">*</text><text x="666.6666666666667" y="128.0" fill="rgb(255,222,255)">◉</text><text x="675.5555555555555" y="128.0" fill="rgb(255,223,252)">◉</text><text x="684.4444444444445" y="128.0" fill="rgb(255,136,239)">*</text><text x="160.0" y="142.22222222222223" fill="rgb(240,255,184)">○</text><text x="168.88888888888889" y="142.22222222222223" fill="rgb(250,255,238)">◉</text><text x="177.77777777777777" y="142.22222222222223" fill="rgb(223,255,160)">*</text><text x="266.6666666666667" y="142.22222222222223" fill="rgb(74,255,74)">.</text><text x="275.55555555555554" y="142.22222222222223" fill="rgb(205,255,208)">○</text><text x="284.44444444444446" y="142.22222222222223" fill="rgb(228,255,231)">◉</text><text x="293.33333333333337" y="142.22222222222223" fill="rgb(198,255,209)">○</text><text x="302.22222222222223" y="142.22222222222223" fill="rgb(235,255,240)">◉</text><text x="311.11111111111114" y="142.22222222222223" fill="rgb(176,255,202)">○</text><text x="320.0" y="142.22222222222223" fill="rgb(48,255,131)">.</text><text x="400.0" y="142.22222222222223" fill="rgb(62,255,255)">.</text><text x="408.8888888888889" y="142.22222222222223" fill="rgb(193,250,255)">○</text><text x="417.77777777777777" y="142.22222222222223" fill="rgb(231,251,255)">◉</text><text x="426.6666666666667" y="142.22222222222223" fill="rgb(199,243,255)">○</text><text x="435.5555555555556" y="142.22222222222223" fill="rgb(232,248,255)">◉</text><text x="444.44444444444446" y="142.22222222222223" fill="rgb(189,233,255)">○</text><text x="453.33333333333337" y="142.22222222222223" fill="rgb(60,177,255)">.</text><text x="533.3333333333334" y="142.22222222222223" fill="rgb(50,50,255)">.</text><text x="542.2222222222223" y="142.22222222222223" fill="rgb(184,179,255)">○</text><text x="551.1111111111111" y="142.22222222222223" fill="rgb(237,235,255)">◉</text><text x="560.0" y="142.22222222222223" fill="rgb(208,197,255)">○</text><text x="568.8888888888889" y="142.22222222222223" fill="rgb(235,229,255)">◉</text><text x="577.7777777777778" y="142.22222222222223" fill="rgb(220,203,255)">○</text><text x="586.6666666666667" y="142.22222222222223" fill="rgb(145,73,255)">.</text><text x="622.2222222222223" y="142.22222222222223" fill="rgb(236,199,255)">○</text><text x="631.1111111111111" y="142.22222222222223" fill="rgb(248,229,255)">◉</text><text x="640.0" y="142.22222222222223" fill="rgb(239,176,255)">○</text><text x="675.5555555555555" y="142.22222222222223" fill="rgb(255,160,248)">*</text><text x="684.4444444444445" y="142.22222222222223" fill="rgb(255,238,252)">◉</text><text x="693.3333333333334" y="142.22222222222223" fill="rgb(255,182,240)">○</text><text x="151.11111111111111" y="156.44444444444446" fill="rgb(240,255,144)">*</text><text x="160.0" y="156.44444444444446" fill="rgb(251,255,239)">◉</text><text x="168.88888888888889" y="156.44444444444446" fill="rgb(232,255,172)">○</text><text x="275.55555555555554" y="156.44444444444446" fill="rgb(56,255,69)">.</text><text x="284.44444444444446" y="156.44444444444446" fill="rgb(217,255,222)">◉</text><text x="293.33333333333337" y="156.44444444444446" fill="rgb(232,255,236)">◉</text><text x="302.22222222222223" y="156.44444444444446" fill="rgb(191,255,208)">○</text><text x="417.77777777777777" y="156.44444444444446" fill="rgb(206,248,255)">○</text><text x="426.6666666666667" y="156.44444444444446" fill="rgb(232,250,255)">◉</text><text x="435.5555555555556" y="156.44444444444446" fill="rgb(204,241,255)">○</text><text x="551.1111111111111" y="156.44444444444446" fill="rgb(201,193,255)">○</text><text x="560.0" y="156.44444444444446" fill="rgb(236,232,255)">◉</text><text x="568.8888888888889" y="156.44444444444446" fill="rgb(226,216,255)">◉</text><text x="577.7777777777778" y="156.44444444444446" fill="rgb(120,54,255)">.</text><text x="622.2222222222223" y="156.44444444444446" fill="rgb(200,89,255)">·</text><text x="631.1111111111111" y="156.44444444444446" fill="rgb(225,145,255)">*</text><text x="640.0" y="156.44444444444446" fill="rgb(222,93,255)">·</text><text x="684.4444444444445" y="156.44444444444446" fill="rgb(255,179,245)">○</text><text x="693.3333333333334" y="156.44444444444446" fill="rgb(255,239,251)">◉</text><text x="702.2222222222223" y="156.44444444444446" fill="rgb(255,139,224)">*</text><text x="80.0" y="170.66666666666669" fill="rgb(255,171,45)">.</text><text x="88.88888888888889" y="170.66666666666669" fill="rgb(255,233,191)">○</text><text x="97.77777777777779" y="170.66666666666669" fill="rgb(255,240,202)">○</text><text x="106.66666666666667" y="170.66666666666669" fill="rgb(255,244,202)">○</text><text x="115.55555555555556" y="170.66666666666669" fill="rgb(255,248,206)">○</text><text x="124.44444444444446" y="170.66666666666669" fill="rgb(255,251,207)">○</text><text x="133.33333333333334" y="170.66666666666669" fill="rgb(255,255,207)">○</text><text x="142.22222222222223" y="170.66666666666669" fill="rgb(251,255,207)">○</text><text x="151.11111111111111" y="170.66666666666669" fill="rgb(251,255,226)">◉</text><text x="160.0" y="170.66666666666669" fill="rgb(250,255,233)">◉</text><text x="168.88888888888889" y="170.66666666666669" fill="rgb(211,255,93)">·</text><text x="222.22222222222223" y="170.66666666666669" fill="rgb(206,255,182)">○</text><text x="231.11111111111111" y="170.66666666666669" fill="rgb(203,255,185)">○</text><text x="284.44444444444446" y="170.66666666666669" fill="rgb(171,255,182)">○</text><text x="293.33333333333337" y="170.66666666666669" fill="rgb(239,255,242)">◉</text><text x="302.22222222222223" y="170.66666666666669" fill="rgb(118,255,154)">·</text><text x="355.55555555555554" y="170.66666666666669" fill="rgb(169,255,226)">○</text><text x="364.44444444444446" y="170.66666666666669" fill="rgb(195,255,239)">○</text><text x="373.33333333333337" y="170.66666666666669" fill="rgb(45,255,212)">.</text><text x="417.77777777777777" y="170.66666666666669" fill="rgb(146,240,255)">*</text><text x="426.6666666666667" y="170.66666666666669" fill="rgb(240,252,255)">◉</text><text x="435.5555555555556" y="170.66666666666669" fill="rgb(143,225,255)">*</text><text x="488.8888888888889" y="170.66666666666669" fill="rgb(151,185,255)">*</text><text x="497.7777777777778" y="170.66666666666669" fill="rgb(203,216,255)">○</text><text x="506.6666666666667" y="170.66666666666669" fill="rgb(66,104,255)">.</text><text x="551.1111111111111" y="170.66666666666669" fill="rgb(138,121,255)">·</text><text x="560.0" y="170.66666666666669" fill="rgb(242,239,255)">◉</text><text x="568.8888888888889" y="170.66666666666669" fill="rgb(189,166,255)">*</text><text x="622.2222222222223" y="170.66666666666669" fill="rgb(211,124,255)">·</text><text x="631.1111111111111" y="170.66666666666669" fill="rgb(239,197,255)">○</text><text x="640.0" y="170.66666666666669" fill="rgb(243,199,255)">○</text><text x="648.8888888888889" y="170.66666666666669" fill="rgb(248,205,255)">○</text><text x="657.7777777777778" y="170.66666666666669" fill="rgb(251,206,255)">○</text><text x="666.6666666666667" y="170.66666666666669" fill="rgb(255,206,255)">○</text><text x="675.5555555555555" y="170.66666666666669" fill="rgb(255,203,251)">○</text><text x="684.4444444444445" y="170.66666666666669" fill="rgb(255,215,249)">◉</text><text x="693.3333333333334" y="170.66666666666669" fill="rgb(255,233,250)">◉</text><text x="702.2222222222223" y="170.66666666666669" fill="rgb(255,180,235)">○</text><text x="80.0" y="184.8888888888889" fill="rgb(255,170,44)">.</text><text x="88.88888888888889" y="184.8888888888889" fill="rgb(255,244,222)">◉</text><text x="97.77777777777779" y="184.8888888888889" fill="rgb(255,248,231)">◉</text><text x="106.66666666666667" y="184.8888888888889" fill="rgb(255,229,127)">*</text><text x="115.55555555555556" y="184.8888888888889" fill="rgb(255,230,68)">.</text><text x="124.44444444444446" y="184.8888888888889" fill="rgb(255,242,73)">.</text><text x="133.33333333333334" y="184.8888888888889" fill="rgb(255,255,74)">.</text><text x="142.22222222222223" y="184.8888888888889" fill="rgb(242,255,73)">.</text><text x="151.11111111111111" y="184.8888888888889" fill="rgb(230,255,73)">.</text><text x="160.0" y="184.8888888888889" fill="rgb(216,255,64)">.</text><text x="213.33333333333334" y="184.8888888888889" fill="rgb(154,255,88)">·</text><text x="222.22222222222223" y="184.8888888888889" fill="rgb(239,255,232)">◉</text><text x="231.11111111111111" y="184.8888888888889" fill="rgb(239,255,234)">◉</text><text x="240.0" y="184.8888888888889" fill="rgb(125,255,93)">·</text><text x="293.33333333333337" y="184.8888888888889" fill="rgb(65,255,102)">.</text><text x="346.6666666666667" y="184.8888888888889" fill="rgb(65,255,179)">.</text><text x="355.55555555555554" y="184.8888888888889" fill="rgb(227,255,245)">◉</text><text x="364.44444444444446" y="184.8888888888889" fill="rgb(235,255,249)">◉</text><text x="373.33333333333337" y="184.8888888888889" fill="rgb(116,255,227)">·</text><text x="426.6666666666667" y="184.8888888888889" fill="rgb(66,217,255)">.</text><text x="480.0" y="184.8888888888889" fill="rgb(42,127,255)">.</text><text x="488.8888888888889" y="184.8888888888889" fill="rgb(218,230,255)">◉</text><text x="497.7777777777778" y="184.8888888888889" fill="rgb(236,241,255)">◉</text><text x="506.6666666666667" y="184.8888888888889" fill="rgb(143,165,255)">*</text><text x="560.0" y="184.8888888888889" fill="rgb(103,65,255)">.</text><text x="622.2222222222223" y="184.8888888888889" fill="rgb(239,208,255)">○</text><text x="631.1111111111111" y="184.8888888888889" fill="rgb(249,235,255)">◉</text><text x="640.0" y="184.8888888888889" fill="rgb(229,128,255)">*</text><text x="648.8888888888889" y="184.8888888888889" fill="rgb(230,72,255)">.</text><text x="657.7777777777778" y="184.8888888888889" fill="rgb(242,73,255)">.</text><text x="666.6666666666667" y="184.8888888888889" fill="rgb(255,73,255)">.</text><text x="675.5555555555555" y="184.8888888888889" fill="rgb(255,73,242)">.</text><text x="684.4444444444445" y="184.8888888888889" fill="rgb(255,72,230)">.</text><text x="693.3333333333334" y="184.8888888888889" fill="rgb(255,71,218)">.</text><text x="88.88888888888889" y="199.11111111111111" fill="rgb(255,212,127)">*</text><text x="97.77777777777779" y="199.11111111111111" fill="rgb(255,250,237)">◉</text><text x="106.66666666666667" y="199.11111111111111" fill="rgb(255,241,189)">○</text><text x="115.55555555555556" y="199.11111111111111" fill="rgb(255,226,42)">.</text><text x="204.44444444444446" y="199.11111111111111" fill="rgb(152,255,63)">.</text><text x="213.33333333333334" y="199.11111111111111" fill="rgb(225,255,206)">○</text><text x="222.22222222222223" y="199.11111111111111" fill="rgb(238,255,230)">◉</text><text x="231.11111111111111" y="199.11111111111111" fill="rgb(235,255,229)">◉</text><text x="240.0" y="199.11111111111111" fill="rgb(217,255,208)">○</text><text x="248.8888888888889" y="199.11111111111111" fill="rgb(89,255,64)">.</text><text x="337.77777777777777" y="199.11111111111111" fill="rgb(47,255,157)">.</text><text x="346.6666666666667" y="199.11111111111111" fill="rgb(193,255,230)">○</text><text x="355.55555555555554" y="199.11111111111111" fill="rgb(232,255,247)">◉</text><text x="364.44444444444446" y="199.11111111111111" fill="rgb(228,255,247)">◉</text><text x="373.33333333333337" y="199.11111111111111" fill="rgb(218,255,247)">◉</text><text x="382.22222222222223" y="199.11111111111111" fill="rgb(81,255,231)">.</text><text x="480.0" y="199.11111111111111" fill="rgb(178,208,255)">○</text><text x="488.8888888888889" y="199.11111111111111" fill="rgb(233,240,255)">◉</text><text x="497.7777777777778" y="199.11111111111111" fill="rgb(227,234,255)">◉</text><text x="506.6666666666667" y="199.11111111111111" fill="rgb(225,231,255)">◉</text><text x="515.5555555555555" y="199.11111111111111" fill="rgb(98,119,255)">·</text><text x="613.3333333333334" y="199.11111111111111" fill="rgb(217,161,255)">*</text><text x="622.2222222222223" y="199.11111111111111" fill="rgb(249,239,255)">◉</text><text x="631.1111111111111" y="199.11111111111111" fill="rgb(232,172,255)">○</text><text x="97.77777777777779" y="213.33333333333334" fill="rgb(255,218,117)">·</text><text x="106.66666666666667" y="213.33333333333334" fill="rgb(255,248,223)">◉</text><text x="115.55555555555556" y="213.33333333333334" fill="rgb(255,250,224)">◉</text><text x="124.44444444444446" y="213.33333333333334" fill="rgb(255,247,139)">*</text><text x="133.33333333333334" y="213.33333333333334" fill="rgb(255,255,61)">.</text><text x="186.66666666666669" y="213.33333333333334" fill="rgb(180,255,68)">.</text><text x="195.55555555555557" y="213.33333333333334" fill="rgb(205,255,148)">*</text><text x="204.44444444444446" y="213.33333333333334" fill="rgb(241,255,229)">◉</text><text x="213.33333333333334" y="213.33333333333334" fill="rgb(231,255,215)">◉</text><text x="222.22222222222223" y="213.33333333333334" fill="rgb(153,255,102)">·</text><text x="231.11111111111111" y="213.33333333333334" fill="rgb(141,255,100)">·</text><text x="240.0" y="213.33333333333334" fill="rgb(223,255,215)">◉</text><text x="248.8888888888889" y="213.33333333333334" fill="rgb(232,255,229)">◉</text><text x="257.77777777777777" y="213.33333333333334" fill="rgb(158,255,152)">*</text><text x="266.6666666666667" y="213.33333333333334" fill="rgb(68,255,68)">.</text><text x="320.0" y="213.33333333333334" fill="rgb(61,255,138)">.</text><text x="328.8888888888889" y="213.33333333333334" fill="rgb(138,255,192)">*</text><text x="337.77777777777777" y="213.33333333333334" fill="rgb(223,255,240)">◉</text><text x="346.6666666666667" y="213.33333333333334" fill="rgb(223,255,242)">◉</text><text x="355.55555555555554" y="213.33333333333334" fill="rgb(117,255,209)">·</text><text x="364.44444444444446" y="213.33333333333334" fill="rgb(88,255,210)">·</text><text x="373.33333333333337" y="213.33333333333334" fill="rgb(205,255,244)">○</text><text x="382.22222222222223" y="213.33333333333334" fill="rgb(235,255,252)">◉</text><text x="391.11111111111114" y="213.33333333333334" fill="rgb(163,255,248)">*</text><text x="400.0" y="213.33333333333334" fill="rgb(78,255,255)">.</text><text x="453.33333333333337" y="213.33333333333334" fill="rgb(54,174,255)">.</text><text x="462.22222222222223" y="213.33333333333334" fill="rgb(126,194,255)">*</text><text x="471.11111111111114" y="213.33333333333334" fill="rgb(215,233,255)">◉</text><text x="480.0" y="213.33333333333334" fill="rgb(230,240,255)">◉</text><text x="488.8888888888889" y="213.33333333333334" fill="rgb(132,173,255)">*</text><text x="497.7777777777778" y="213.33333333333334" fill="rgb(79,125,255)">.</text><text x="506.6666666666667" y="213.33333333333334" fill="rgb(195,207,255)">○</text><text x="515.5555555555555" y="213.33333333333334" fill="rgb(235,237,255)">◉</text><text x="524.4444444444445" y="213.33333333333334" fill="rgb(174,179,255)">○</text><text x="533.3333333333334" y="213.33333333333334" fill="rgb(86,86,255)">·</text><text x="586.6666666666667" y="213.33333333333334" fill="rgb(131,48,255)">.</text><text x="595.5555555555555" y="213.33333333333334" fill="rgb(180,114,255)">·</text><text x="604.4444444444445" y="213.33333333333334" fill="rgb(232,206,255)">○</text><text x="613.3333333333334" y="213.33333333333334" fill="rgb(245,232,255)">◉</text><text x="622.2222222222223" y="213.33333333333334" fill="rgb(221,153,255)">*</text><text x="106.66666666666667" y="227.55555555555557" fill="rgb(255,213,46)">.</text><text x="115.55555555555556" y="227.55555555555557" fill="rgb(255,238,132)">*</text><text x="124.44444444444446" y="227.55555555555557" fill="rgb(255,251,199)">○</text><text x="133.33333333333334" y="227.55555555555557" fill="rgb(255,255,221)">◉</text><text x="142.22222222222223" y="227.55555555555557" fill="rgb(252,255,211)">◉</text><text x="151.11111111111111" y="227.55555555555557" fill="rgb(247,255,195)">○</text><text x="160.0" y="227.55555555555557" fill="rgb(241,255,189)">○</text><text x="168.88888888888889" y="227.55555555555557" fill="rgb(239,255,197)">○</text><text x="177.77777777777777" y="227.55555555555557" fill="rgb(241,255,213)">◉</text><text x="186.66666666666669" y="227.55555555555557" fill="rgb(241,255,221)">◉</text><text x="195.55555555555557" y="227.55555555555557" fill="rgb(227,255,195)">○</text><text x="204.44444444444446" y="227.55555555555557" fill="rgb(185,255,124)">·</text><text x="248.8888888888889" y="227.55555555555557" fill="rgb(140,255,122)">·</text><text x="257.77777777777777" y="227.55555555555557" fill="rgb(198,255,195)">○</text><text x="266.6666666666667" y="227.55555555555557" fill="rgb(222,255,222)">◉</text><text x="275.55555555555554" y="227.55555555555557" fill="rgb(215,255,217)">◉</text><text x="284.44444444444446" y="227.55555555555557" fill="rgb(198,255,205)">○</text><text x="293.33333333333337" y="227.55555555555557" fill="rgb(190,255,203)">○</text><text x="302.22222222222223" y="227.55555555555557" fill="rgb(195,255,211)">○</text><text x="311.11111111111114" y="227.55555555555557" fill="rgb(211,255,225)">◉</text><text x="320.0" y="227.55555555555557" fill="rgb(222,255,235)">◉</text><text x="328.8888888888889" y="227.55555555555557" fill="rgb(202,255,226)">○</text><text x="337.77777777777777" y="227.55555555555557" fill="rgb(136,255,199)">*</text><text x="346.6666666666667" y="227.55555555555557" fill="rgb(47,255,171)">.</text><text x="382.22222222222223" y="227.55555555555557" fill="rgb(112,255,235)">·</text><text x="391.11111111111114" y="227.55555555555557" fill="rgb(189,255,250)">○</text><text x="400.0" y="227.55555555555557" fill="rgb(221,255,255)">◉</text><text x="408.8888888888889" y="227.55555555555557" fill="rgb(216,252,255)">◉</text><text x="417.77777777777777" y="227.55555555555557" fill="rgb(198,247,255)">○</text><text x="426.6666666666667" y="227.55555555555557" fill="rgb(189,241,255)">○</text><text x="435.5555555555556" y="227.55555555555557" fill="rgb(194,238,255)">○</text><text x="444.44444444444446" y="227.55555555555557" fill="rgb(210,240,255)">◉</text><text x="453.33333333333337" y="227.55555555555557" fill="rgb(222,241,255)">◉</text><text x="462.22222222222223" y="227.55555555555557" fill="rgb(205,231,255)">○</text><text x="471.11111111111114" y="227.55555555555557" fill="rgb(145,196,255)">*</text><text x="480.0" y="227.55555555555557" fill="rgb(57,136,255)">.</text><text x="515.5555555555555" y="227.55555555555557" fill="rgb(102,122,255)">·</text><text x="524.4444444444445" y="227.55555555555557" fill="rgb(182,186,255)">○</text><text x="533.3333333333334" y="227.55555555555557" fill="rgb(218,218,255)">◉</text><text x="542.2222222222223" y="227.55555555555557" fill="rgb(219,217,255)">◉</text><text x="551.1111111111111" y="227.55555555555557" fill="rgb(208,201,255)">○</text><text x="560.0" y="227.55555555555557" fill="rgb(202,190,255)">○</text><text x="568.8888888888889" y="227.55555555555557" fill="rgb(209,193,255)">○</text><text x="577.7777777777778" y="227.55555555555557" fill="rgb(223,207,255)">○</text><text x="586.6666666666667" y="227.55555555555557" fill="rgb(234,221,255)">◉</text><text x="595.5555555555555" y="227.55555555555557" fill="rgb(231,211,255)">◉</text><text x="604.4444444444445" y="227.55555555555557" fill="rgb(207,154,255)">*</text><text x="613.3333333333334" y="227.55555555555557" fill="rgb(179,65,255)">.</text><text x="133.33333333333334" y="241.7777777777778" fill="rgb(255,255,44)">.</text><text x="142.22222222222223" y="241.7777777777778" fill="rgb(243,255,74)">.</text><text x="151.11111111111111" y="241.7777777777778" fill="rgb(233,255,96)">·</text><text x="160.0" y="241.7777777777778" fill="rgb(224,255,104)">·</text><text x="168.88888888888889" y="241.7777777777778" fill="rgb(212,255,94)">·</text><text x="177.77777777777777" y="241.7777777777778" fill="rgb(194,255,72)">.</text><text x="275.55555555555554" y="241.7777777777778" fill="rgb(71,255,83)">.</text><text x="284.44444444444446" y="241.7777777777778" fill="rgb(94,255,115)">·</text><text x="293.33333333333337" y="241.7777777777778" fill="rgb(102,255,132)">·</text><text x="302.22222222222223" y="241.7777777777778" fill="rgb(97,255,139)">·</text><text x="311.11111111111114" y="241.7777777777778" fill="rgb(74,255,135)">.</text><text x="320.0" y="241.7777777777778" fill="rgb(42,255,127)">.</text><text x="408.8888888888889" y="241.7777777777778" fill="rgb(68,242,255)">.</text><text x="417.77777777777777" y="241.7777777777778" fill="rgb(92,233,255)">·</text><text x="426.6666666666667" y="241.7777777777778" fill="rgb(103,224,255)">·</text><text x="435.5555555555556" y="241.7777777777778" fill="rgb(98,213,255)">·</text><text x="444.44444444444446" y="241.7777777777778" fill="rgb(78,195,255)">.</text><text x="453.33333333333337" y="241.7777777777778" fill="rgb(47,171,255)">.</text><text x="542.2222222222223" y="241.7777777777778" fill="rgb(75,63,255)">.</text><text x="551.1111111111111" y="241.7777777777778" fill="rgb(111,89,255)">·</text><text x="560.0" y="241.7777777777778" fill="rgb(132,102,255)">·</text><text x="568.8888888888889" y="241.7777777777778" fill="rgb(141,100,255)">·</text><text x="577.7777777777778" y="241.7777777777778" fill="rgb(138,81,255)">.</text><text x="586.6666666666667" y="241.7777777777778" fill="rgb(133,52,255)">.</text><text x="106.66666666666667" y="270.22222222222223" fill="rgb(255,214,50)">.</text><text x="115.55555555555556" y="270.22222222222223" fill="rgb(255,228,53)">.</text><text x="124.44444444444446" y="270.22222222222223" fill="rgb(255,241,53)">.</text><text x="133.33333333333334" y="270.22222222222223" fill="rgb(255,255,50)">.</text><text x="160.0" y="270.22222222222223" fill="rgb(212,255,41)">.</text><text x="195.55555555555557" y="270.22222222222223" fill="rgb(157,255,45)">.</text><text x="275.55555555555554" y="270.22222222222223" fill="rgb(48,255,62)">.</text><text x="284.44444444444446" y="270.22222222222223" fill="rgb(53,255,79)">.</text><text x="293.33333333333337" y="270.22222222222223" fill="rgb(53,255,93)">.</text><text x="302.22222222222223" y="270.22222222222223" fill="rgb(53,255,106)">.</text><text x="355.55555555555554" y="270.22222222222223" fill="rgb(48,255,185)">.</text><text x="364.44444444444446" y="270.22222222222223" fill="rgb(53,255,201)">.</text><text x="373.33333333333337" y="270.22222222222223" fill="rgb(48,255,213)">.</text><text x="382.22222222222223" y="270.22222222222223" fill="rgb(42,255,226)">.</text><text x="391.11111111111114" y="270.22222222222223" fill="rgb(52,255,241)">.</text><text x="400.0" y="270.22222222222223" fill="rgb(53,255,255)">.</text><text x="426.6666666666667" y="270.22222222222223" fill="rgb(42,212,255)">.</text><text x="506.6666666666667" y="270.22222222222223" fill="rgb(46,87,255)">.</text><text x="551.1111111111111" y="270.22222222222223" fill="rgb(71,42,255)">.</text><text x="586.6666666666667" y="270.22222222222223" fill="rgb(129,46,255)">.</text><text x="595.5555555555555" y="270.22222222222223" fill="rgb(147,53,255)">.</text><text x="604.4444444444445" y="270.22222222222223" fill="rgb(160,53,255)">.</text><text x="613.3333333333334" y="270.22222222222223" fill="rgb(174,53,255)">.</text><text x="657.7777777777778" y="270.22222222222223" fill="rgb(241,52,255)">.</text><text x="666.6666666666667" y="270.22222222222223" fill="rgb(255,53,255)">.</text><text x="675.5555555555555" y="270.22222222222223" fill="rgb(255,53,241)">.</text><text x="88.88888888888889" y="284.44444444444446" fill="rgb(255,193,69)">.</text><text x="97.77777777777779" y="284.44444444444446" fill="rgb(255,253,249)">◉</text><text x="106.66666666666667" y="284.44444444444446" fill="rgb(255,235,159)">*</text><text x="115.55555555555556" y="284.44444444444446" fill="rgb(255,238,134)">*</text><text x="124.44444444444446" y="284.44444444444446" fill="rgb(255,246,131)">*</text><text x="133.33333333333334" y="284.44444444444446" fill="rgb(255,255,131)">*</text><text x="151.11111111111111" y="284.44444444444446" fill="rgb(234,255,101)">·</text><text x="160.0" y="284.44444444444446" fill="rgb(253,255,248)">◉</text><text x="186.66666666666669" y="284.44444444444446" fill="rgb(239,255,215)">◉</text><text x="195.55555555555557" y="284.44444444444446" fill="rgb(255,255,255)">◉</text><text x="204.44444444444446" y="284.44444444444446" fill="rgb(215,255,180)">○</text><text x="231.11111111111111" y="284.44444444444446" fill="rgb(152,255,114)">·</text><text x="240.0" y="284.44444444444446" fill="rgb(243,255,241)">◉</text><text x="266.6666666666667" y="284.44444444444446" fill="rgb(243,255,243)">◉</text><text x="275.55555555555554" y="284.44444444444446" fill="rgb(176,255,181)">○</text><text x="284.44444444444446" y="284.44444444444446" fill="rgb(134,255,150)">*</text><text x="293.33333333333337" y="284.44444444444446" fill="rgb(131,255,155)">*</text><text x="302.22222222222223" y="284.44444444444446" fill="rgb(134,255,166)">*</text><text x="311.11111111111114" y="284.44444444444446" fill="rgb(53,255,120)">.</text><text x="355.55555555555554" y="284.44444444444446" fill="rgb(124,255,211)">·</text><text x="364.44444444444446" y="284.44444444444446" fill="rgb(136,255,223)">*</text><text x="373.33333333333337" y="284.44444444444446" fill="rgb(186,255,241)">○</text><text x="382.22222222222223" y="284.44444444444446" fill="rgb(248,255,254)">◉</text><text x="391.11111111111114" y="284.44444444444446" fill="rgb(147,255,247)">*</text><text x="400.0" y="284.44444444444446" fill="rgb(136,255,255)">*</text><text x="408.8888888888889" y="284.44444444444446" fill="rgb(77,243,255)">.</text><text x="417.77777777777777" y="284.44444444444446" fill="rgb(56,228,255)">.</text><text x="426.6666666666667" y="284.44444444444446" fill="rgb(250,254,255)">◉</text><text x="435.5555555555556" y="284.44444444444446" fill="rgb(62,203,255)">.</text><text x="471.11111111111114" y="284.44444444444446" fill="rgb(241,247,255)">◉</text><text x="480.0" y="284.44444444444446" fill="rgb(116,171,255)">·</text><text x="497.7777777777778" y="284.44444444444446" fill="rgb(148,177,255)">*</text><text x="506.6666666666667" y="284.44444444444446" fill="rgb(253,253,255)">◉</text><text x="515.5555555555555" y="284.44444444444446" fill="rgb(230,233,255)">◉</text><text x="551.1111111111111" y="284.44444444444446" fill="rgb(250,250,255)">◉</text><text x="560.0" y="284.44444444444446" fill="rgb(116,81,255)">.</text><text x="577.7777777777778" y="284.44444444444446" fill="rgb(215,195,255)">○</text><text x="586.6666666666667" y="284.44444444444446" fill="rgb(229,213,255)">◉</text><text x="595.5555555555555" y="284.44444444444446" fill="rgb(191,135,255)">*</text><text x="604.4444444444445" y="284.44444444444446" fill="rgb(197,131,255)">*</text><text x="613.3333333333334" y="284.44444444444446" fill="rgb(206,132,255)">*</text><text x="622.2222222222223" y="284.44444444444446" fill="rgb(201,94,255)">·</text><text x="640.0" y="284.44444444444446" fill="rgb(226,112,255)">·</text><text x="648.8888888888889" y="284.44444444444446" fill="rgb(250,222,255)">◉</text><text x="657.7777777777778" y="284.44444444444446" fill="rgb(247,142,255)">*</text><text x="666.6666666666667" y="284.44444444444446" fill="rgb(255,134,255)">*</text><text x="675.5555555555555" y="284.44444444444446" fill="rgb(255,136,247)">*</text><text x="684.4444444444445" y="284.44444444444446" fill="rgb(255,202,247)">○</text><text x="693.3333333333334" y="284.44444444444446" fill="rgb(255,191,242)">○</text><text x="88.88888888888889" y="298.6666666666667" fill="rgb(255,195,77)">.</text><text x="97.77777777777779" y="298.6666666666667" fill="rgb(255,255,255)">◉</text><text x="106.66666666666667" y="298.6666666666667" fill="rgb(255,212,44)">.</text><text x="151.11111111111111" y="298.6666666666667" fill="rgb(235,255,109)">·</text><text x="160.0" y="298.6666666666667" fill="rgb(255,255,255)">◉</text><text x="186.66666666666669" y="298.6666666666667" fill="rgb(247,255,235)">◉</text><text x="195.55555555555557" y="298.6666666666667" fill="rgb(220,255,180)">○</text><text x="204.44444444444446" y="298.6666666666667" fill="rgb(239,255,226)">◉</text><text x="213.33333333333334" y="298.6666666666667" fill="rgb(179,255,129)">*</text><text x="231.11111111111111" y="298.6666666666667" fill="rgb(156,255,121)">·</text><text x="240.0" y="298.6666666666667" fill="rgb(249,255,248)">◉</text><text x="266.6666666666667" y="298.6666666666667" fill="rgb(255,255,255)">◉</text><text x="275.55555555555554" y="298.6666666666667" fill="rgb(82,255,94)">.</text><text x="373.33333333333337" y="298.6666666666667" fill="rgb(109,255,225)">·</text><text x="382.22222222222223" y="298.6666666666667" fill="rgb(251,255,254)">◉</text><text x="417.77777777777777" y="298.6666666666667" fill="rgb(65,229,255)">.</text><text x="426.6666666666667" y="298.6666666666667" fill="rgb(255,255,255)">◉</text><text x="435.5555555555556" y="298.6666666666667" fill="rgb(65,204,255)">.</text><text x="471.11111111111114" y="298.6666666666667" fill="rgb(248,251,255)">◉</text><text x="480.0" y="298.6666666666667" fill="rgb(121,175,255)">·</text><text x="497.7777777777778" y="298.6666666666667" fill="rgb(167,190,255)">*</text><text x="506.6666666666667" y="298.6666666666667" fill="rgb(224,230,255)">◉</text><text x="515.5555555555555" y="298.6666666666667" fill="rgb(183,192,255)">○</text><text x="524.4444444444445" y="298.6666666666667" fill="rgb(202,205,255)">○</text><text x="551.1111111111111" y="298.6666666666667" fill="rgb(255,255,255)">◉</text><text x="560.0" y="298.6666666666667" fill="rgb(120,87,255)">·</text><text x="577.7777777777778" y="298.6666666666667" fill="rgb(227,213,255)">◉</text><text x="586.6666666666667" y="298.6666666666667" fill="rgb(203,170,255)">○</text><text x="640.0" y="298.6666666666667" fill="rgb(241,185,255)">○</text><text x="648.8888888888889" y="298.6666666666667" fill="rgb(251,225,255)">◉</text><text x="684.4444444444445" y="298.6666666666667" fill="rgb(255,70,230)">.</text><text x="693.3333333333334" y="298.6666666666667" fill="rgb(255,154,234)">*</text><text x="88.88888888888889" y="312.8888888888889" fill="rgb(255,195,76)">.</text><text x="97.77777777777779" y="312.8888888888889" fill="rgb(255,255,255)">◉</text><text x="106.66666666666667" y="312.8888888888889" fill="rgb(255,212,44)">.</text><text x="115.55555555555556" y="312.8888888888889" fill="rgb(255,236,120)">·</text><text x="124.44444444444446" y="312.8888888888889" fill="rgb(255,252,219)">◉</text><text x="133.33333333333334" y="312.8888888888889" fill="rgb(255,255,52)">.</text><text x="151.11111111111111" y="312.8888888888889" fill="rgb(235,255,108)">·</text><text x="160.0" y="312.8888888888889" fill="rgb(254,255,253)">◉</text><text x="186.66666666666669" y="312.8888888888889" fill="rgb(248,255,238)">◉</text><text x="195.55555555555557" y="312.8888888888889" fill="rgb(195,255,128)">*</text><text x="204.44444444444446" y="312.8888888888889" fill="rgb(152,255,63)">.</text><text x="213.33333333333334" y="312.8888888888889" fill="rgb(252,255,251)">◉</text><text x="222.22222222222223" y="312.8888888888889" fill="rgb(122,255,56)">.</text><text x="231.11111111111111" y="312.8888888888889" fill="rgb(147,255,109)">·</text><text x="240.0" y="312.8888888888889" fill="rgb(247,255,246)">◉</text><text x="266.6666666666667" y="312.8888888888889" fill="rgb(255,255,255)">◉</text><text x="275.55555555555554" y="312.8888888888889" fill="rgb(81,255,92)">.</text><text x="284.44444444444446" y="312.8888888888889" fill="rgb(82,255,105)">.</text><text x="293.33333333333337" y="312.8888888888889" fill="rgb(221,255,227)">◉</text><text x="302.22222222222223" y="312.8888888888889" fill="rgb(82,255,128)">.</text><text x="373.33333333333337" y="312.8888888888889" fill="rgb(113,255,226)">·</text><text x="382.22222222222223" y="312.8888888888889" fill="rgb(250,255,254)">◉</text><text x="417.77777777777777" y="312.8888888888889" fill="rgb(64,229,255)">.</text><text x="426.6666666666667" y="312.8888888888889" fill="rgb(255,255,255)">◉</text><text x="435.5555555555556" y="312.8888888888889" fill="rgb(65,204,255)">.</text><text x="471.11111111111114" y="312.8888888888889" fill="rgb(246,250,255)">◉</text><text x="480.0" y="312.8888888888889" fill="rgb(121,174,255)">·</text><text x="497.7777777777778" y="312.8888888888889" fill="rgb(167,190,255)">*</text><text x="506.6666666666667" y="312.8888888888889" fill="rgb(211,220,255)">◉</text><text x="524.4444444444445" y="312.8888888888889" fill="rgb(227,228,255)">◉</text><text x="533.3333333333334" y="312.8888888888889" fill="rgb(135,135,255)">*</text><text x="551.1111111111111" y="312.8888888888889" fill="rgb(255,255,255)">◉</text><text x="560.0" y="312.8888888888889" fill="rgb(119,86,255)">·</text><text x="577.7777777777778" y="312.8888888888889" fill="rgb(225,211,255)">◉</text><text x="586.6666666666667" y="312.8888888888889" fill="rgb(202,167,255)">*</text><text x="604.4444444444445" y="312.8888888888889" fill="rgb(236,215,255)">◉</text><text x="613.3333333333334" y="312.8888888888889" fill="rgb(213,151,255)">*</text><text x="640.0" y="312.8888888888889" fill="rgb(215,56,255)">.</text><text x="648.8888888888889" y="312.8888888888889" fill="rgb(243,168,255)">○</text><text x="657.7777777777778" y="312.8888888888889" fill="rgb(248,163,255)">*</text><text x="666.6666666666667" y="312.8888888888889" fill="rgb(255,159,255)">*</text><text x="675.5555555555555" y="312.8888888888889" fill="rgb(255,160,248)">*</text><text x="684.4444444444445" y="312.8888888888889" fill="rgb(255,177,244)">○</text><text x="693.3333333333334" y="312.8888888888889" fill="rgb(255,110,226)">·</text><text x="88.88888888888889" y="327.11111111111114" fill="rgb(255,195,76)">.</text><text x="97.77777777777779" y="327.11111111111114" fill="rgb(255,255,255)">◉</text><text x="106.66666666666667" y="327.11111111111114" fill="rgb(255,214,50)">.</text><text x="151.11111111111111" y="327.11111111111114" fill="rgb(235,255,108)">·</text><text x="160.0" y="327.11111111111114" fill="rgb(254,255,254)">◉</text><text x="186.66666666666669" y="327.11111111111114" fill="rgb(248,255,239)">◉</text><text x="195.55555555555557" y="327.11111111111114" fill="rgb(200,255,139)">*</text><text x="213.33333333333334" y="327.11111111111114" fill="rgb(184,255,137)">*</text><text x="222.22222222222223" y="327.11111111111114" fill="rgb(232,255,221)">◉</text><text x="231.11111111111111" y="327.11111111111114" fill="rgb(180,255,154)">*</text><text x="240.0" y="327.11111111111114" fill="rgb(245,255,243)">◉</text><text x="266.6666666666667" y="327.11111111111114" fill="rgb(255,255,255)">◉</text><text x="275.55555555555554" y="327.11111111111114" fill="rgb(81,255,93)">.</text><text x="373.33333333333337" y="327.11111111111114" fill="rgb(113,255,226)">·</text><text x="382.22222222222223" y="327.11111111111114" fill="rgb(250,255,254)">◉</text><text x="417.77777777777777" y="327.11111111111114" fill="rgb(65,229,255)">.</text><text x="426.6666666666667" y="327.11111111111114" fill="rgb(255,255,255)">◉</text><text x="435.5555555555556" y="327.11111111111114" fill="rgb(57,202,255)">.</text><text x="471.11111111111114" y="327.11111111111114" fill="rgb(248,251,255)">◉</text><text x="480.0" y="327.11111111111114" fill="rgb(125,177,255)">·</text><text x="497.7777777777778" y="327.11111111111114" fill="rgb(167,190,255)">*</text><text x="506.6666666666667" y="327.11111111111114" fill="rgb(218,225,255)">◉</text><text x="524.4444444444445" y="327.11111111111114" fill="rgb(62,74,255)">.</text><text x="533.3333333333334" y="327.11111111111114" fill="rgb(245,245,255)">◉</text><text x="542.2222222222223" y="327.11111111111114" fill="rgb(139,131,255)">*</text><text x="551.1111111111111" y="327.11111111111114" fill="rgb(253,253,255)">◉</text><text x="560.0" y="327.11111111111114" fill="rgb(119,86,255)">·</text><text x="577.7777777777778" y="327.11111111111114" fill="rgb(226,211,255)">◉</text><text x="586.6666666666667" y="327.11111111111114" fill="rgb(203,169,255)">○</text><text x="640.0" y="327.11111111111114" fill="rgb(223,96,255)">·</text><text x="648.8888888888889" y="327.11111111111114" fill="rgb(235,111,255)">·</text><text x="684.4444444444445" y="327.11111111111114" fill="rgb(255,130,238)">*</text><text x="693.3333333333334" y="327.11111111111114" fill="rgb(255,255,255)">◉</text><text x="88.88888888888889" y="341.33333333333337" fill="rgb(255,195,76)">.</text><text x="97.77777777777779" y="341.33333333333337" fill="rgb(255,255,255)">◉</text><text x="106.66666666666667" y="341.33333333333337" fill="rgb(255,214,52)">.</text><text x="151.11111111111111" y="341.33333333333337" fill="rgb(235,255,109)">·</text><text x="160.0" y="341.33333333333337" fill="rgb(255,255,255)">◉</text><text x="186.66666666666669" y="341.33333333333337" fill="rgb(249,255,242)">◉</text><text x="195.55555555555557" y="341.33333333333337" fill="rgb(201,255,140)">*</text><text x="222.22222222222223" y="341.33333333333337" fill="rgb(211,255,190)">○</text><text x="231.11111111111111" y="341.33333333333337" fill="rgb(255,255,255)">◉</text><text x="240.0" y="341.33333333333337" fill="rgb(238,255,234)">◉</text><text x="266.6666666666667" y="341.33333333333337" fill="rgb(255,255,255)">◉</text><text x="275.55555555555554" y="341.33333333333337" fill="rgb(164,255,170)">*</text><text x="284.44444444444446" y="341.33333333333337" fill="rgb(112,255,131)">·</text><text x="293.33333333333337" y="341.33333333333337" fill="rgb(110,255,138)">·</text><text x="302.22222222222223" y="341.33333333333337" fill="rgb(113,255,150)">·</text><text x="311.11111111111114" y="341.33333333333337" fill="rgb(66,255,129)">.</text><text x="373.33333333333337" y="341.33333333333337" fill="rgb(113,255,226)">·</text><text x="382.22222222222223" y="341.33333333333337" fill="rgb(255,255,255)">◉</text><text x="426.6666666666667" y="341.33333333333337" fill="rgb(228,249,255)">◉</text><text x="435.5555555555556" y="341.33333333333337" fill="rgb(164,231,255)">*</text><text x="444.44444444444446" y="341.33333333333337" fill="rgb(113,207,255)">·</text><text x="453.33333333333337" y="341.33333333333337" fill="rgb(113,198,255)">·</text><text x="462.22222222222223" y="341.33333333333337" fill="rgb(139,200,255)">*</text><text x="471.11111111111114" y="341.33333333333337" fill="rgb(239,246,255)">◉</text><text x="480.0" y="341.33333333333337" fill="rgb(81,151,255)">.</text><text x="497.7777777777778" y="341.33333333333337" fill="rgb(169,191,255)">○</text><text x="506.6666666666667" y="341.33333333333337" fill="rgb(220,227,255)">◉</text><text x="533.3333333333334" y="341.33333333333337" fill="rgb(119,119,255)">·</text><text x="542.2222222222223" y="341.33333333333337" fill="rgb(255,255,255)">◉</text><text x="551.1111111111111" y="341.33333333333337" fill="rgb(255,255,255)">◉</text><text x="560.0" y="341.33333333333337" fill="rgb(114,80,255)">.</text><text x="577.7777777777778" y="341.33333333333337" fill="rgb(223,207,255)">○</text><text x="586.6666666666667" y="341.33333333333337" fill="rgb(229,211,255)">◉</text><text x="595.5555555555555" y="341.33333333333337" fill="rgb(179,113,255)">·</text><text x="604.4444444444445" y="341.33333333333337" fill="rgb(187,110,255)">·</text><text x="613.3333333333334" y="341.33333333333337" fill="rgb(197,112,255)">·</text><text x="622.2222222222223" y="341.33333333333337" fill="rgb(202,97,255)">·</text><text x="640.0" y="341.33333333333337" fill="rgb(231,136,255)">*</text><text x="648.8888888888889" y="341.33333333333337" fill="rgb(253,240,255)">◉</text><text x="657.7777777777778" y="341.33333333333337" fill="rgb(246,121,255)">·</text><text x="666.6666666666667" y="341.33333333333337" fill="rgb(255,112,255)">·</text><text x="675.5555555555555" y="341.33333333333337" fill="rgb(255,113,245)">·</text><text x="684.4444444444445" y="341.33333333333337" fill="rgb(255,192,246)">○</text><text x="693.3333333333334" y="341.33333333333337" fill="rgb(255,204,244)">○</text><text x="97.77777777777779" y="355.5555555555556" fill="rgb(255,205,70)">.</text><text x="160.0" y="355.5555555555556" fill="rgb(217,255,68)">.</text><text x="186.66666666666669" y="355.5555555555556" fill="rgb(178,255,63)">.</text><text x="231.11111111111111" y="355.5555555555556" fill="rgb(119,255,70)">.</text><text x="240.0" y="355.5555555555556" fill="rgb(91,255,50)">.</text><text x="266.6666666666667" y="355.5555555555556" fill="rgb(61,255,61)">.</text><text x="275.55555555555554" y="355.5555555555556" fill="rgb(74,255,86)">.</text><text x="284.44444444444446" y="355.5555555555556" fill="rgb(79,255,102)">.</text><text x="293.33333333333337" y="355.5555555555556" fill="rgb(79,255,114)">.</text><text x="302.22222222222223" y="355.5555555555556" fill="rgb(79,255,125)">.</text><text x="311.11111111111114" y="355.5555555555556" fill="rgb(47,255,116)">.</text><text x="382.22222222222223" y="355.5555555555556" fill="rgb(70,255,230)">.</text><text x="435.5555555555556" y="355.5555555555556" fill="rgb(71,205,255)">.</text><text x="444.44444444444446" y="355.5555555555556" fill="rgb(79,196,255)">.</text><text x="453.33333333333337" y="355.5555555555556" fill="rgb(79,184,255)">.</text><text x="462.22222222222223" y="355.5555555555556" fill="rgb(76,171,255)">.</text><text x="497.7777777777778" y="355.5555555555556" fill="rgb(41,98,255)">.</text><text x="506.6666666666667" y="355.5555555555556" fill="rgb(56,96,255)">.</text><text x="542.2222222222223" y="355.5555555555556" fill="rgb(73,61,255)">.</text><text x="551.1111111111111" y="355.5555555555556" fill="rgb(90,65,255)">.</text><text x="577.7777777777778" y="355.5555555555556" fill="rgb(114,44,255)">.</text><text x="586.6666666666667" y="355.5555555555556" fill="rgb(145,72,255)">.</text><text x="595.5555555555555" y="355.5555555555556" fill="rgb(161,79,255)">.</text><text x="604.4444444444445" y="355.5555555555556" fill="rgb(172,79,255)">.</text><text x="613.3333333333334" y="355.5555555555556" fill="rgb(184,79,255)">.</text><text x="622.2222222222223" y="355.5555555555556" fill="rgb(192,66,255)">.</text><text x="648.8888888888889" y="355.5555555555556" fill="rgb(227,46,255)">.</text><text x="657.7777777777778" y="355.5555555555556" fill="rgb(243,78,255)">.</text><text x="666.6666666666667" y="355.5555555555556" fill="rgb(255,79,255)">.</text><text x="675.5555555555555" y="355.5555555555556" fill="rgb(255,79,243)">.</text><text x="684.4444444444445" y="355.5555555555556" fill="rgb(255,63,229)">.</text></svg>