<?xml version='1.0' encoding='utf-8'?>
<svg xmlns="http://www.w3.org/2000/svg" viewBox="0 0 1000.0 496.0" width="1000.0" height="496.0"><title>fine_tunes</title><style>
        text {
            font-family: "Courier New", Courier, monospace;
            font-size: 14px;
            dominant-baseline: hanging;
        }
    </style><text x="260.0" y="128.0" fill="rgb(152,102,113)">.</text><text x="270.0" y="128.0" fill="rgb(140,94,103)">:</text><text x="280.0" y="128.0" fill="rgb(134,90,98)">!</text><text x="290.0" y="128.0" fill="rgb(137,93,99)">:</text><text x="300.0" y="128.0" fill="rgb(149,101,107)">.</text><text x="430.0" y="128.0" fill="rgb(157,109,98)">.</text><text x="440.0" y="128.0" fill="rgb(145,101,90)">:</text><text x="450.0" y="128.0" fill="rgb(141,99,87)">:</text><text x="460.0" y="128.0" fill="rgb(146,102,89)">:</text><text x="470.0" y="128.0" fill="rgb(159,111,96)">.</text><text x="600.0" y="128.0" fill="rgb(161,117,84)">.</text><text x="610.0" y="128.0" fill="rgb(149,108,77)">:</text><text x="620.0" y="128.0" fill="rgb(147,107,76)">:</text><text x="630.0" y="128.0" fill="rgb(154,111,78)">:</text><text x="640.0" y="128.0" fill="rgb(168,122,84)">.</text><text x="760.0" y="128.0" fill="rgb(180,135,78)">.</text><text x="770.0" y="128.0" fill="rgb(165,123,70)">:</text><text x="780.0" y="128.0" fill="rgb(155,115,65)">:</text><text x="790.0" y="128.0" fill="rgb(155,116,64)">:</text><text x="800.0" y="128.0" fill="rgb(163,122,67)">:</text><text x="810.0" y="128.0" fill="rgb(180,135,72)">.</text><text x="220.0" y="144.0" fill="rgb(159,107,119)">.</text><text x="230.0" y="144.0" fill="rgb(109,73,80)">*</text><text x="240.0" y="144.0" fill="rgb(61,41,45)">&amp;</text><text x="250.0" y="144.0" fill="rgb(33,22,24)">S</text><text x="310.0" y="144.0" fill="rgb(29,19,19)">S</text><text x="320.0" y="144.0" fill="rgb(50,34,34)">#</text><text x="330.0" y="144.0" fill="rgb(93,64,62)">$</text><text x="340.0" y="144.0" fill="rgb(146,100,97)">:</text><text x="390.0" y="144.0" fill="rgb(157,109,100)">.</text><text x="400.0" y="144.0" fill="rgb(103,71,64)">%</text><text x="410.0" y="144.0" fill="rgb(58,40,36)">&amp;</text><text x="420.0" y="144.0" fill="rgb(30,21,18)">S</text><text x="480.0" y="144.0" fill="rgb(31,22,18)">S</text><text x="490.0" y="144.0" fill="rgb(60,42,34)">&amp;</text><text x="500.0" y="144.0" fill="rgb(108,77,61)">%</text><text x="510.0" y="144.0" fill="rgb(164,117,91)">.</text><text x="560.0" y="144.0" fill="rgb(152,110,80)">:</text><text x="570.0" y="144.0" fill="rgb(97,70,50)">$</text><text x="580.0" y="144.0" fill="rgb(52,37,26)">#</text><text x="590.0" y="144.0" fill="rgb(29,21,15)">S</text><text x="650.0" y="144.0" fill="rgb(38,27,18)">S</text><text x="660.0" y="144.0" fill="rgb(71,52,33)">&amp;</text><text x="670.0" y="144.0" fill="rgb(126,92,58)">*</text><text x="730.0" y="144.0" fill="rgb(148,110,64)">!</text><text x="740.0" y="144.0" fill="rgb(90,67,38)">@</text><text x="750.0" y="144.0" fill="rgb(48,36,20)">#</text><text x="820.0" y="144.0" fill="rgb(44,33,16)">S</text><text x="830.0" y="144.0" fill="rgb(84,63,32)">@</text><text x="840.0" y="144.0" fill="rgb(142,107,53)">!</text><text x="210.0" y="160.0" fill="rgb(97,66,71)">%</text><text x="220.0" y="160.0" fill="rgb(30,20,22)">S</text><text x="230.0" y="160.0" fill="rgb(12,8,8)">B</text><text x="240.0" y="160.0" fill="rgb(41,28,29)">#</text><text x="250.0" y="160.0" fill="rgb(89,61,63)">$</text><text x="260.0" y="160.0" fill="rgb(126,85,87)">!</text><text x="270.0" y="160.0" fill="rgb(145,99,101)">:</text><text x="280.0" y="160.0" fill="rgb(155,105,106)">.</text><text x="290.0" y="160.0" fill="rgb(151,104,103)">.</text><text x="300.0" y="160.0" fill="rgb(136,93,91)">!</text><text x="310.0" y="160.0" fill="rgb(107,73,71)">%</text><text x="320.0" y="160.0" fill="rgb(60,41,40)">&amp;</text><text x="350.0" y="160.0" fill="rgb(70,49,45)">@</text><text x="360.0" y="160.0" fill="rgb(158,110,99)">.</text><text x="380.0" y="160.0" fill="rgb(84,59,52)">$</text><text x="410.0" y="160.0" fill="rgb(54,38,32)">#</text><text x="420.0" y="160.0" fill="rgb(102,72,60)">%</text><text x="430.0" y="160.0" fill="rgb(137,97,80)">!</text><text x="440.0" y="160.0" fill="rgb(155,110,90)">:</text><text x="450.0" y="160.0" fill="rgb(161,114,92)">.</text><text x="460.0" y="160.0" fill="rgb(155,110,88)">:</text><text x="470.0" y="160.0" fill="rgb(137,97,77)">!</text><text x="480.0" y="160.0" fill="rgb(102,73,56)">%</text><text x="490.0" y="160.0" fill="rgb(52,37,28)">#</text><text x="520.0" y="160.0" fill="rgb(91,65,48)">$</text><text x="540.0" y="160.0" fill="rgb(163,118,85)">.</text><text x="550.0" y="160.0" fill="rgb(71,51,36)">&amp;</text><text x="580.0" y="160.0" fill="rgb(65,47,32)">&amp;</text><text x="590.0" y="160.0" fill="rgb(116,85,57)">%</text><text x="600.0" y="160.0" fill="rgb(148,108,72)">!</text><text x="610.0" y="160.0" fill="rgb(164,120,79)">.</text><text x="620.0" y="160.0" fill="rgb(169,124,80)">.</text><text x="630.0" y="160.0" fill="rgb(159,117,74)">:</text><text x="640.0" y="160.0" fill="rgb(137,101,63)">!</text><text x="650.0" y="160.0" fill="rgb(96,71,44)">$</text><text x="660.0" y="160.0" fill="rgb(44,32,20)">S</text><text x="670.0" y="160.0" fill="rgb(13,10,6)">B</text><text x="680.0" y="160.0" fill="rgb(36,27,16)">S</text><text x="690.0" y="160.0" fill="rgb(115,85,50)">%</text><text x="710.0" y="160.0" fill="rgb(152,114,65)">!</text><text x="720.0" y="160.0" fill="rgb(59,44,24)">#</text><text x="730.0" y="160.0" fill="rgb(14,10,6)">B</text><text x="750.0" y="160.0" fill="rgb(81,61,32)">@</text><text x="760.0" y="160.0" fill="rgb(128,96,51)">*</text><text x="770.0" y="160.0" fill="rgb(159,120,62)">:</text><text x="780.0" y="160.0" fill="rgb(156,117,60)">:</text><text x="790.0" y="160.0" fill="rgb(142,107,54)">!</text><text x="800.0" y="160.0" fill="rgb(153,115,57)">!</text><text x="810.0" y="160.0" fill="rgb(137,104,50)">*</text><text x="820.0" y="160.0" fill="rgb(91,69,33)">@</text><text x="830.0" y="160.0" fill="rgb(37,28,13)">S</text><text x="840.0" y="160.0" fill="rgb(15,11,5)">B</text><text x="850.0" y="160.0" fill="rgb(49,37,17)">#</text><text x="860.0" y="160.0" fill="rgb(140,107,48)">*</text><text x="200.0" y="176.0" fill="rgb(64,43,46)">&amp;</text><text x="210.0" y="176.0" fill="rgb(12,8,9)">B</text><text x="220.0" y="176.0" fill="rgb(33,22,23)">S</text><text x="230.0" y="176.0" fill="rgb(117,79,81)">*</text><text x="330.0" y="176.0" fill="rgb(148,104,93)">:</text><text x="340.0" y="176.0" fill="rgb(61,42,38)">&amp;</text><text x="350.0" y="176.0" fill="rgb(13,9,8)">B</text><text x="360.0" y="176.0" fill="rgb(38,26,23)">S</text><text x="370.0" y="176.0" fill="rgb(45,32,27)">#</text><text x="380.0" y="176.0" fill="rgb(13,9,8)">B</text><text x="390.0" y="176.0" fill="rgb(48,34,29)">#</text><text x="400.0" y="176.0" fill="rgb(140,99,82)">!</text><text x="500.0" y="176.0" fill="rgb(140,101,74)">!</text><text x="510.0" y="176.0" fill="rgb(46,33,24)">#</text><text x="530.0" y="176.0" fill="rgb(47,34,24)">#</text><text x="540.0" y="176.0" fill="rgb(37,27,18)">S</text><text x="560.0" y="176.0" fill="rgb(69,50,34)">&amp;</text><text x="570.0" y="176.0" fill="rgb(161,118,77)">:</text><text x="670.0" y="176.0" fill="rgb(127,94,54)">*</text><text x="680.0" y="176.0" fill="rgb(33,25,14)">S</text><text x="700.0" y="176.0" fill="rgb(57,43,23)">#</text><text x="730.0" y="176.0" fill="rgb(92,69,36)">@</text><text x="740.0" y="176.0" fill="rgb(180,135,70)">.</text><text x="770.0" y="176.0" fill="rgb(162,122,60)">:</text><text x="780.0" y="176.0" fill="rgb(37,28,13)">S</text><text x="800.0" y="176.0" fill="rgb(60,46,21)">#</text><text x="840.0" y="176.0" fill="rgb(112,86,38)">%</text><text x="870.0" y="176.0" fill="rgb(108,83,35)">$</text><text x="190.0" y="192.0" fill="rgb(89,61,63)">$</text><text x="210.0" y="192.0" fill="rgb(31,21,21)">S</text><text x="220.0" y="192.0" fill="rgb(142,98,97)">:</text><text x="350.0" y="192.0" fill="rgb(64,45,38)">&amp;</text><text x="380.0" y="192.0" fill="rgb(46,33,27)">#</text><text x="390.0" y="192.0" fill="rgb(170,120,97)">.</text><text x="510.0" y="192.0" fill="rgb(171,125,86)">.</text><text x="520.0" y="192.0" fill="rgb(46,33,22)">#</text><text x="550.0" y="192.0" fill="rgb(73,53,35)">&amp;</text><text x="680.0" y="192.0" fill="rgb(154,115,62)">!</text><text x="690.0" y="192.0" fill="rgb(31,23,12)">S</text><text x="720.0" y="192.0" fill="rgb(103,78,40)">$</text><text x="770.0" y="192.0" fill="rgb(182,138,65)">.</text><text x="780.0" y="192.0" fill="rgb(91,69,32)">@</text><text x="790.0" y="192.0" fill="rgb(69,53,24)">&amp;</text><text x="800.0" y="192.0" fill="rgb(111,85,38)">%</text><text x="850.0" y="192.0" fill="rgb(136,104,43)">*</text><text x="880.0" y="192.0" fill="rgb(147,113,44)">!</text><text x="110.0" y="208.0" fill="rgb(91,61,67)">$</text><text x="120.0" y="208.0" fill="rgb(71,48,52)">@</text><text x="130.0" y="208.0" fill="rgb(71,48,51)">@</text><text x="140.0" y="208.0" fill="rgb(68,46,49)">@</text><text x="150.0" y="208.0" fill="rgb(68,46,48)">@</text><text x="160.0" y="208.0" fill="rgb(68,47,48)">@</text><text x="170.0" y="208.0" fill="rgb(69,47,48)">@</text><text x="180.0" y="208.0" fill="rgb(67,45,46)">&amp;</text><text x="200.0" y="208.0" fill="rgb(11,8,7)">B</text><text x="210.0" y="208.0" fill="rgb(75,52,50)">@</text><text x="270.0" y="208.0" fill="rgb(164,114,103)">.</text><text x="280.0" y="208.0" fill="rgb(84,59,52)">$</text><text x="290.0" y="208.0" fill="rgb(95,66,58)">$</text><text x="350.0" y="208.0" fill="rgb(137,97,79)">!</text><text x="370.0" y="208.0" fill="rgb(12,9,7)">B</text><text x="380.0" y="208.0" fill="rgb(112,80,63)">%</text><text x="440.0" y="208.0" fill="rgb(152,111,79)">:</text><text x="450.0" y="208.0" fill="rgb(80,58,41)">@</text><text x="460.0" y="208.0" fill="rgb(115,84,59)">%</text><text x="520.0" y="208.0" fill="rgb(111,81,53)">%</text><text x="530.0" y="208.0" fill="rgb(13,9,6)">B</text><text x="550.0" y="208.0" fill="rgb(152,112,69)">:</text><text x="610.0" y="208.0" fill="rgb(141,105,60)">!</text><text x="620.0" y="208.0" fill="rgb(81,60,34)">@</text><text x="630.0" y="208.0" fill="rgb(139,104,58)">!</text><text x="690.0" y="208.0" fill="rgb(79,60,30)">@</text><text x="700.0" y="208.0" fill="rgb(14,10,5)">B</text><text x="710.0" y="208.0" fill="rgb(33,25,12)">S</text><text x="720.0" y="208.0" fill="rgb(186,141,68)">.</text><text x="780.0" y="208.0" fill="rgb(130,100,44)">*</text><text x="790.0" y="208.0" fill="rgb(85,65,28)">@</text><text x="800.0" y="208.0" fill="rgb(88,67,29)">@</text><text x="810.0" y="208.0" fill="rgb(82,63,26)">@</text><text x="820.0" y="208.0" fill="rgb(81,62,25)">@</text><text x="830.0" y="208.0" fill="rgb(81,62,25)">@</text><text x="840.0" y="208.0" fill="rgb(82,63,25)">@</text><text x="850.0" y="208.0" fill="rgb(80,61,24)">&amp;</text><text x="870.0" y="208.0" fill="rgb(14,11,4)">B</text><text x="880.0" y="208.0" fill="rgb(79,61,22)">&amp;</text><text x="100.0" y="224.0" fill="rgb(149,101,107)">.</text><text x="130.0" y="224.0" fill="rgb(38,26,27)">S</text><text x="140.0" y="224.0" fill="rgb(65,44,45)">&amp;</text><text x="150.0" y="224.0" fill="rgb(63,42,43)">&amp;</text><text x="160.0" y="224.0" fill="rgb(63,43,42)">&amp;</text><text x="170.0" y="224.0" fill="rgb(62,43,42)">&amp;</text><text x="180.0" y="224.0" fill="rgb(63,43,42)">&amp;</text><text x="190.0" y="224.0" fill="rgb(67,46,44)">&amp;</text><text x="200.0" y="224.0" fill="rgb(71,49,46)">@</text><text x="210.0" y="224.0" fill="rgb(144,99,93)">:</text><text x="270.0" y="224.0" fill="rgb(109,76,66)">%</text><text x="280.0" y="224.0" fill="rgb(11,8,7)">B</text><text x="300.0" y="224.0" fill="rgb(140,99,82)">!</text><text x="360.0" y="224.0" fill="rgb(91,65,50)">$</text><text x="370.0" y="224.0" fill="rgb(83,59,45)">@</text><text x="380.0" y="224.0" fill="rgb(169,121,91)">.</text><text x="440.0" y="224.0" fill="rgb(79,58,40)">@</text><text x="450.0" y="224.0" fill="rgb(11,8,5)">B</text><text x="460.0" y="224.0" fill="rgb(31,22,15)">S</text><text x="470.0" y="224.0" fill="rgb(177,129,86)">.</text><text x="520.0" y="224.0" fill="rgb(171,127,78)">.</text><text x="530.0" y="224.0" fill="rgb(83,61,37)">@</text><text x="540.0" y="224.0" fill="rgb(98,72,43)">$</text><text x="610.0" y="224.0" fill="rgb(53,39,21)">#</text><text x="620.0" y="224.0" fill="rgb(12,9,4)">B</text><text x="630.0" y="224.0" fill="rgb(52,39,20)">#</text><text x="690.0" y="224.0" fill="rgb(159,120,58)">:</text><text x="700.0" y="224.0" fill="rgb(79,60,28)">@</text><text x="710.0" y="224.0" fill="rgb(120,91,42)">%</text><text x="770.0" y="224.0" fill="rgb(188,143,60)">.</text><text x="780.0" y="224.0" fill="rgb(32,24,10)">S</text><text x="800.0" y="224.0" fill="rgb(47,36,14)">S</text><text x="810.0" y="224.0" fill="rgb(76,58,23)">&amp;</text><text x="820.0" y="224.0" fill="rgb(75,58,22)">&amp;</text><text x="830.0" y="224.0" fill="rgb(76,58,22)">&amp;</text><text x="840.0" y="224.0" fill="rgb(75,58,22)">&amp;</text><text x="850.0" y="224.0" fill="rgb(76,59,21)">&amp;</text><text x="860.0" y="224.0" fill="rgb(81,63,23)">@</text><text x="870.0" y="224.0" fill="rgb(82,64,22)">@</text><text x="880.0" y="224.0" fill="rgb(146,113,39)">*</text><text x="110.0" y="240.0" fill="rgb(62,42,43)">&amp;</text><text x="130.0" y="240.0" fill="rgb(48,33,33)">#</text><text x="260.0" y="240.0" fill="rgb(170,119,101)">.</text><text x="270.0" y="240.0" fill="rgb(47,33,27)">#</text><text x="300.0" y="240.0" fill="rgb(70,50,40)">&amp;</text><text x="430.0" y="240.0" fill="rgb(155,113,76)">:</text><text x="440.0" y="240.0" fill="rgb(33,24,16)">S</text><text x="470.0" y="240.0" fill="rgb(101,74,47)">$</text><text x="600.0" y="240.0" fill="rgb(135,101,53)">*</text><text x="640.0" y="240.0" fill="rgb(136,102,51)">*</text><text x="770.0" y="240.0" fill="rgb(107,82,33)">$</text><text x="800.0" y="240.0" fill="rgb(173,133,51)">:</text><text x="110.0" y="256.0" fill="rgb(156,107,104)">.</text><text x="120.0" y="256.0" fill="rgb(45,31,30)">#</text><text x="130.0" y="256.0" fill="rgb(12,8,8)">B</text><text x="140.0" y="256.0" fill="rgb(49,34,32)">#</text><text x="150.0" y="256.0" fill="rgb(140,97,90)">:</text><text x="250.0" y="256.0" fill="rgb(143,101,83)">!</text><text x="260.0" y="256.0" fill="rgb(50,35,29)">#</text><text x="280.0" y="256.0" fill="rgb(43,31,24)">#</text><text x="290.0" y="256.0" fill="rgb(35,25,19)">S</text><text x="310.0" y="256.0" fill="rgb(70,50,38)">&amp;</text><text x="320.0" y="256.0" fill="rgb(159,115,85)">:</text><text x="420.0" y="256.0" fill="rgb(133,97,63)">*</text><text x="430.0" y="256.0" fill="rgb(38,27,17)">S</text><text x="450.0" y="256.0" fill="rgb(50,36,23)">#</text><text x="460.0" y="256.0" fill="rgb(30,22,13)">S</text><text x="480.0" y="256.0" fill="rgb(92,68,41)">$</text><text x="490.0" y="256.0" fill="rgb(180,133,79)">.</text><text x="590.0" y="256.0" fill="rgb(117,88,45)">%</text><text x="620.0" y="256.0" fill="rgb(54,41,20)">#</text><text x="650.0" y="256.0" fill="rgb(121,92,42)">%</text><text x="750.0" y="256.0" fill="rgb(191,147,57)">.</text><text x="760.0" y="256.0" fill="rgb(100,77,29)">$</text><text x="790.0" y="256.0" fill="rgb(132,103,38)">*</text><text x="120.0" y="272.0" fill="rgb(167,116,107)">.</text><text x="130.0" y="272.0" fill="rgb(79,55,50)">@</text><text x="160.0" y="272.0" fill="rgb(58,41,36)">&amp;</text><text x="170.0" y="272.0" fill="rgb(107,75,65)">%</text><text x="180.0" y="272.0" fill="rgb(141,99,85)">!</text><text x="190.0" y="272.0" fill="rgb(158,112,94)">.</text><text x="200.0" y="272.0" fill="rgb(164,116,97)">.</text><text x="210.0" y="272.0" fill="rgb(158,112,92)">.</text><text x="220.0" y="272.0" fill="rgb(143,101,83)">!</text><text x="230.0" y="272.0" fill="rgb(108,77,62)">%</text><text x="240.0" y="272.0" fill="rgb(59,42,33)">&amp;</text><text x="270.0" y="272.0" fill="rgb(84,60,46)">@</text><text x="280.0" y="272.0" fill="rgb(174,125,94)">.</text><text x="290.0" y="272.0" fill="rgb(159,115,85)">:</text><text x="300.0" y="272.0" fill="rgb(67,48,35)">&amp;</text><text x="330.0" y="272.0" fill="rgb(71,51,36)">&amp;</text><text x="340.0" y="272.0" fill="rgb(120,87,61)">*</text><text x="350.0" y="272.0" fill="rgb(151,110,76)">:</text><text x="360.0" y="272.0" fill="rgb(167,122,83)">.</text><text x="370.0" y="272.0" fill="rgb(171,125,84)">.</text><text x="380.0" y="272.0" fill="rgb(163,119,79)">:</text><text x="390.0" y="272.0" fill="rgb(142,105,68)">!</text><text x="400.0" y="272.0" fill="rgb(104,76,49)">$</text><text x="410.0" y="272.0" fill="rgb(50,37,23)">#</text><text x="420.0" y="272.0" fill="rgb(14,10,6)">B</text><text x="430.0" y="272.0" fill="rgb(31,22,14)">S</text><text x="440.0" y="272.0" fill="rgb(107,79,48)">%</text><text x="460.0" y="272.0" fill="rgb(148,110,65)">!</text><text x="470.0" y="272.0" fill="rgb(54,40,23)">#</text><text x="480.0" y="272.0" fill="rgb(13,10,5)">B</text><text x="490.0" y="272.0" fill="rgb(30,22,12)">S</text><text x="500.0" y="272.0" fill="rgb(84,63,35)">@</text><text x="510.0" y="272.0" fill="rgb(133,100,55)">*</text><text x="520.0" y="272.0" fill="rgb(163,122,66)">:</text><text x="530.0" y="272.0" fill="rgb(176,132,70)">.</text><text x="540.0" y="272.0" fill="rgb(178,134,70)">.</text><text x="550.0" y="272.0" fill="rgb(167,126,65)">:</text><text x="560.0" y="272.0" fill="rgb(142,107,54)">!</text><text x="570.0" y="272.0" fill="rgb(98,74,37)">$</text><text x="580.0" y="272.0" fill="rgb(43,32,16)">S</text><text x="590.0" y="272.0" fill="rgb(13,10,4)">B</text><text x="600.0" y="272.0" fill="rgb(42,32,15)">S</text><text x="610.0" y="272.0" fill="rgb(133,101,47)">*</text><text x="630.0" y="272.0" fill="rgb(132,101,46)">*</text><text x="640.0" y="272.0" fill="rgb(44,33,15)">S</text><text x="650.0" y="272.0" fill="rgb(14,10,4)">B</text><text x="660.0" y="272.0" fill="rgb(42,32,14)">S</text><text x="670.0" y="272.0" fill="rgb(101,77,33)">$</text><text x="680.0" y="272.0" fill="rgb(147,113,47)">!</text><text x="690.0" y="272.0" fill="rgb(172,133,55)">:</text><text x="700.0" y="272.0" fill="rgb(185,142,58)">.</text><text x="710.0" y="272.0" fill="rgb(183,142,56)">.</text><text x="720.0" y="272.0" fill="rgb(170,131,51)">:</text><text x="730.0" y="272.0" fill="rgb(140,108,41)">*</text><text x="740.0" y="272.0" fill="rgb(91,70,26)">@</text><text x="750.0" y="272.0" fill="rgb(35,27,10)">S</text><text x="770.0" y="272.0" fill="rgb(61,47,17)">#</text><text x="780.0" y="272.0" fill="rgb(160,124,44)">!</text><text x="140.0" y="288.0" fill="rgb(155,109,94)">:</text><text x="150.0" y="288.0" fill="rgb(100,70,60)">%</text><text x="160.0" y="288.0" fill="rgb(54,38,32)">#</text><text x="170.0" y="288.0" fill="rgb(28,20,16)">S</text><text x="230.0" y="288.0" fill="rgb(29,20,16)">S</text><text x="240.0" y="288.0" fill="rgb(54,38,29)">#</text><text x="250.0" y="288.0" fill="rgb(102,73,55)">%</text><text x="260.0" y="288.0" fill="rgb(161,115,86)">.</text><text x="310.0" y="288.0" fill="rgb(150,109,75)">:</text><text x="320.0" y="288.0" fill="rgb(93,67,46)">$</text><text x="330.0" y="288.0" fill="rgb(47,34,23)">#</text><text x="400.0" y="288.0" fill="rgb(34,25,15)">S</text><text x="410.0" y="288.0" fill="rgb(64,47,28)">&amp;</text><text x="420.0" y="288.0" fill="rgb(118,87,51)">%</text><text x="430.0" y="288.0" fill="rgb(178,132,78)">.</text><text x="480.0" y="288.0" fill="rgb(146,108,59)">!</text><text x="490.0" y="288.0" fill="rgb(84,63,34)">@</text><text x="500.0" y="288.0" fill="rgb(43,32,17)">S</text><text x="570.0" y="288.0" fill="rgb(39,29,14)">S</text><text x="580.0" y="288.0" fill="rgb(77,59,27)">&amp;</text><text x="590.0" y="288.0" fill="rgb(136,103,47)">*</text><text x="650.0" y="288.0" fill="rgb(138,106,44)">*</text><text x="660.0" y="288.0" fill="rgb(78,60,24)">&amp;</text><text x="670.0" y="288.0" fill="rgb(40,31,12)">S</text><text x="740.0" y="288.0" fill="rgb(46,36,12)">S</text><text x="750.0" y="288.0" fill="rgb(91,70,24)">@</text><text x="760.0" y="288.0" fill="rgb(155,121,42)">!</text><text x="180.0" y="304.0" fill="rgb(156,111,88)">:</text><text x="190.0" y="304.0" fill="rgb(144,103,80)">!</text><text x="200.0" y="304.0" fill="rgb(139,99,77)">!</text><text x="210.0" y="304.0" fill="rgb(146,104,79)">:</text><text x="220.0" y="304.0" fill="rgb(159,114,86)">:</text><text x="340.0" y="304.0" fill="rgb(177,130,83)">.</text><text x="350.0" y="304.0" fill="rgb(161,118,74)">:</text><text x="360.0" y="304.0" fill="rgb(148,109,68)">!</text><text x="370.0" y="304.0" fill="rgb(147,108,66)">!</text><text x="380.0" y="304.0" fill="rgb(152,113,68)">:</text><text x="390.0" y="304.0" fill="rgb(169,125,74)">.</text><text x="510.0" y="304.0" fill="rgb(181,136,67)">.</text><text x="520.0" y="304.0" fill="rgb(163,124,60)">:</text><text x="530.0" y="304.0" fill="rgb(154,117,56)">!</text><text x="540.0" y="304.0" fill="rgb(152,116,55)">!</text><text x="550.0" y="304.0" fill="rgb(162,123,58)">:</text><text x="560.0" y="304.0" fill="rgb(180,137,63)">.</text><text x="680.0" y="304.0" fill="rgb(185,144,54)">.</text><text x="690.0" y="304.0" fill="rgb(169,131,48)">:</text><text x="700.0" y="304.0" fill="rgb(158,123,44)">!</text><text x="710.0" y="304.0" fill="rgb(159,124,44)">!</text><text x="720.0" y="304.0" fill="rgb(172,134,46)">:</text><text x="730.0" y="304.0" fill="rgb(191,149,50)">.</text><text x="140.0" y="336.0" fill="rgb(172,124,94)">.</text><text x="150.0" y="336.0" fill="rgb(173,124,93)">.</text><text x="160.0" y="336.0" fill="rgb(173,124,93)">.</text><text x="350.0" y="336.0" fill="rgb(182,135,77)">.</text><text x="360.0" y="336.0" fill="rgb(182,136,77)">.</text><text x="370.0" y="336.0" fill="rgb(183,136,76)">.</text><text x="380.0" y="336.0" fill="rgb(184,137,75)">.</text><text x="450.0" y="336.0" fill="rgb(187,141,70)">.</text><text x="460.0" y="336.0" fill="rgb(187,141,69)">.</text><text x="490.0" y="336.0" fill="rgb(189,144,66)">.</text><text x="500.0" y="336.0" fill="rgb(188,144,65)">.</text><text x="740.0" y="336.0" fill="rgb(200,158,47)">.</text><text x="750.0" y="336.0" fill="rgb(200,157,46)">.</text><text x="760.0" y="336.0" fill="rgb(200,158,45)">.</text><text x="770.0" y="336.0" fill="rgb(201,159,44)">.</text><text x="830.0" y="336.0" fill="rgb(203,162,38)">.</text><text x="840.0" y="336.0" fill="rgb(203,163,38)">.</text><text x="110.0" y="352.0" fill="rgb(173,124,95)">.</text><text x="130.0" y="352.0" fill="rgb(39,28,21)">S</text><text x="140.0" y="352.0" fill="rgb(66,47,35)">&amp;</text><text x="150.0" y="352.0" fill="rgb(67,48,35)">&amp;</text><text x="160.0" y="352.0" fill="rgb(66,48,34)">&amp;</text><text x="170.0" y="352.0" fill="rgb(86,62,43)">@</text><text x="190.0" y="352.0" fill="rgb(118,86,59)">*</text><text x="210.0" y="352.0" fill="rgb(164,120,80)">.</text><text x="230.0" y="352.0" fill="rgb(99,73,47)">$</text><text x="240.0" y="352.0" fill="rgb(14,10,6)">B</text><text x="260.0" y="352.0" fill="rgb(147,108,67)">!</text><text x="290.0" y="352.0" fill="rgb(110,81,49)">%</text><text x="310.0" y="352.0" fill="rgb(178,133,77)">.</text><text x="330.0" y="352.0" fill="rgb(64,48,27)">&amp;</text><text x="350.0" y="352.0" fill="rgb(69,52,28)">&amp;</text><text x="360.0" y="352.0" fill="rgb(70,53,28)">&amp;</text><text x="370.0" y="352.0" fill="rgb(70,53,28)">&amp;</text><text x="380.0" y="352.0" fill="rgb(71,53,27)">&amp;</text><text x="390.0" y="352.0" fill="rgb(163,123,63)">:</text><text x="440.0" y="352.0" fill="rgb(133,101,48)">*</text><text x="450.0" y="352.0" fill="rgb(71,54,25)">&amp;</text><text x="460.0" y="352.0" fill="rgb(71,54,25)">&amp;</text><text x="470.0" y="352.0" fill="rgb(32,24,11)">S</text><text x="490.0" y="352.0" fill="rgb(69,53,23)">&amp;</text><text x="500.0" y="352.0" fill="rgb(72,55,23)">&amp;</text><text x="510.0" y="352.0" fill="rgb(107,82,35)">$</text><text x="530.0" y="352.0" fill="rgb(36,28,11)">S</text><text x="540.0" y="352.0" fill="rgb(75,58,23)">&amp;</text><text x="580.0" y="352.0" fill="rgb(188,146,55)">.</text><text x="600.0" y="352.0" fill="rgb(118,91,33)">%</text><text x="620.0" y="352.0" fill="rgb(155,120,42)">!</text><text x="640.0" y="352.0" fill="rgb(13,10,3)">B</text><text x="650.0" y="352.0" fill="rgb(119,93,31)">%</text><text x="680.0" y="352.0" fill="rgb(171,134,42)">:</text><text x="700.0" y="352.0" fill="rgb(151,119,35)">!</text><text x="720.0" y="352.0" fill="rgb(116,92,26)">$</text><text x="740.0" y="352.0" fill="rgb(70,55,15)">&amp;</text><text x="750.0" y="352.0" fill="rgb(76,60,16)">&amp;</text><text x="760.0" y="352.0" fill="rgb(77,61,16)">&amp;</text><text x="770.0" y="352.0" fill="rgb(76,61,15)">&amp;</text><text x="780.0" y="352.0" fill="rgb(144,114,29)">*</text><text x="800.0" y="352.0" fill="rgb(165,132,31)">!</text><text x="810.0" y="352.0" fill="rgb(47,38,8)">S</text><text x="820.0" y="352.0" fill="rgb(63,50,11)">#</text><text x="830.0" y="352.0" fill="rgb(77,62,13)">&amp;</text><text x="840.0" y="352.0" fill="rgb(78,62,13)">&amp;</text><text x="850.0" y="352.0" fill="rgb(70,56,12)">&amp;</text><text x="860.0" y="352.0" fill="rgb(39,31,6)">S</text><text x="870.0" y="352.0" fill="rgb(137,110,22)">%</text><text x="110.0" y="368.0" fill="rgb(168,121,88)">.</text><text x="120.0" y="368.0" fill="rgb(0,0,0)">B</text><text x="130.0" y="368.0" fill="rgb(90,65,46)">$</text><text x="190.0" y="368.0" fill="rgb(106,77,51)">%</text><text x="200.0" y="368.0" fill="rgb(0,0,0)">B</text><text x="210.0" y="368.0" fill="rgb(160,117,75)">:</text><text x="230.0" y="368.0" fill="rgb(74,54,33)">&amp;</text><text x="240.0" y="368.0" fill="rgb(3,2,1)">B</text><text x="250.0" y="368.0" fill="rgb(36,27,16)">S</text><text x="290.0" y="368.0" fill="rgb(98,73,42)">$</text><text x="300.0" y="368.0" fill="rgb(0,0,0)">B</text><text x="310.0" y="368.0" fill="rgb(174,130,72)">.</text><text x="330.0" y="368.0" fill="rgb(35,26,14)">S</text><text x="340.0" y="368.0" fill="rgb(34,25,13)">S</text><text x="470.0" y="368.0" fill="rgb(59,45,19)">#</text><text x="540.0" y="368.0" fill="rgb(58,45,17)">#</text><text x="580.0" y="368.0" fill="rgb(184,143,50)">.</text><text x="590.0" y="368.0" fill="rgb(0,0,0)">B</text><text x="600.0" y="368.0" fill="rgb(104,81,27)">$</text><text x="620.0" y="368.0" fill="rgb(138,107,35)">*</text><text x="630.0" y="368.0" fill="rgb(0,0,0)">B</text><text x="640.0" y="368.0" fill="rgb(45,35,11)">S</text><text x="650.0" y="368.0" fill="rgb(3,2,0)">B</text><text x="660.0" y="368.0" fill="rgb(165,130,39)">!</text><text x="680.0" y="368.0" fill="rgb(163,128,37)">!</text><text x="690.0" y="368.0" fill="rgb(0,0,0)">B</text><text x="700.0" y="368.0" fill="rgb(140,110,30)">*</text><text x="720.0" y="368.0" fill="rgb(92,73,19)">@</text><text x="730.0" y="368.0" fill="rgb(0,0,0)">B</text><text x="740.0" y="368.0" fill="rgb(202,161,41)">.</text><text x="800.0" y="368.0" fill="rgb(73,59,13)">&amp;</text><text x="810.0" y="368.0" fill="rgb(0,0,0)">B</text><text x="860.0" y="368.0" fill="rgb(62,50,9)">#</text><text x="870.0" y="368.0" fill="rgb(66,53,9)">#</text><text x="110.0" y="384.0" fill="rgb(170,123,86)">.</text><text x="120.0" y="384.0" fill="rgb(0,0,0)">B</text><text x="130.0" y="384.0" fill="rgb(95,69,47)">$</text><text x="150.0" y="384.0" fill="rgb(55,40,26)">#</text><text x="160.0" y="384.0" fill="rgb(73,53,35)">&amp;</text><text x="190.0" y="384.0" fill="rgb(109,80,50)">%</text><text x="200.0" y="384.0" fill="rgb(0,0,0)">B</text><text x="210.0" y="384.0" fill="rgb(162,120,73)">:</text><text x="230.0" y="384.0" fill="rgb(76,56,33)">@</text><text x="240.0" y="384.0" fill="rgb(8,5,3)">B</text><text x="250.0" y="384.0" fill="rgb(172,128,73)">.</text><text x="270.0" y="384.0" fill="rgb(59,44,24)">#</text><text x="290.0" y="384.0" fill="rgb(101,76,41)">$</text><text x="300.0" y="384.0" fill="rgb(0,0,0)">B</text><text x="310.0" y="384.0" fill="rgb(177,132,70)">.</text><text x="330.0" y="384.0" fill="rgb(39,29,15)">S</text><text x="340.0" y="384.0" fill="rgb(37,28,14)">S</text><text x="360.0" y="384.0" fill="rgb(91,69,33)">@</text><text x="370.0" y="384.0" fill="rgb(54,41,19)">#</text><text x="380.0" y="384.0" fill="rgb(177,134,63)">.</text><text x="470.0" y="384.0" fill="rgb(62,47,19)">#</text><text x="540.0" y="384.0" fill="rgb(61,47,17)">#</text><text x="580.0" y="384.0" fill="rgb(186,146,48)">.</text><text x="590.0" y="384.0" fill="rgb(0,0,0)">B</text><text x="600.0" y="384.0" fill="rgb(106,83,26)">$</text><text x="620.0" y="384.0" fill="rgb(140,110,34)">*</text><text x="630.0" y="384.0" fill="rgb(0,0,0)">B</text><text x="640.0" y="384.0" fill="rgb(166,131,39)">!</text><text x="650.0" y="384.0" fill="rgb(80,63,18)">&amp;</text><text x="680.0" y="384.0" fill="rgb(170,134,36)">:</text><text x="690.0" y="384.0" fill="rgb(0,0,0)">B</text><text x="700.0" y="384.0" fill="rgb(143,113,29)">*</text><text x="720.0" y="384.0" fill="rgb(96,76,19)">@</text><text x="730.0" y="384.0" fill="rgb(2,2,0)">B</text><text x="750.0" y="384.0" fill="rgb(140,112,26)">*</text><text x="760.0" y="384.0" fill="rgb(54,43,9)">#</text><text x="770.0" y="384.0" fill="rgb(158,126,27)">!</text><text x="800.0" y="384.0" fill="rgb(131,106,21)">%</text><text x="810.0" y="384.0" fill="rgb(14,11,2)">B</text><text x="820.0" y="384.0" fill="rgb(95,77,14)">@</text><text x="830.0" y="384.0" fill="rgb(118,96,18)">$</text><text x="840.0" y="384.0" fill="rgb(118,96,17)">$</text><text x="850.0" y="384.0" fill="rgb(120,97,17)">$</text><text x="860.0" y="384.0" fill="rgb(143,116,20)">*</text><text x="870.0" y="384.0" fill="rgb(210,170,28)">.</text><text x="110.0" y="400.0" fill="rgb(171,125,84)">.</text><text x="120.0" y="400.0" fill="rgb(0,0,0)">B</text><text x="130.0" y="400.0" fill="rgb(94,69,45)">$</text><text x="150.0" y="400.0" fill="rgb(110,81,51)">%</text><text x="160.0" y="400.0" fill="rgb(123,90,57)">*</text><text x="190.0" y="400.0" fill="rgb(109,81,48)">%</text><text x="200.0" y="400.0" fill="rgb(0,0,0)">B</text><text x="210.0" y="400.0" fill="rgb(163,121,70)">:</text><text x="230.0" y="400.0" fill="rgb(76,57,32)">@</text><text x="240.0" y="400.0" fill="rgb(4,3,2)">B</text><text x="260.0" y="400.0" fill="rgb(163,122,66)">:</text><text x="270.0" y="400.0" fill="rgb(1,1,0)">B</text><text x="280.0" y="400.0" fill="rgb(120,90,47)">%</text><text x="290.0" y="400.0" fill="rgb(109,83,43)">%</text><text x="300.0" y="400.0" fill="rgb(0,0,0)">B</text><text x="310.0" y="400.0" fill="rgb(177,134,67)">.</text><text x="330.0" y="400.0" fill="rgb(39,30,14)">S</text><text x="340.0" y="400.0" fill="rgb(38,29,13)">S</text><text x="360.0" y="400.0" fill="rgb(140,106,49)">*</text><text x="370.0" y="400.0" fill="rgb(114,87,39)">%</text><text x="470.0" y="400.0" fill="rgb(62,48,18)">#</text><text x="540.0" y="400.0" fill="rgb(62,48,16)">#</text><text x="580.0" y="400.0" fill="rgb(189,149,46)">.</text><text x="590.0" y="400.0" fill="rgb(0,0,0)">B</text><text x="600.0" y="400.0" fill="rgb(107,84,25)">$</text><text x="620.0" y="400.0" fill="rgb(141,111,32)">*</text><text x="630.0" y="400.0" fill="rgb(0,0,0)">B</text><text x="640.0" y="400.0" fill="rgb(167,132,36)">!</text><text x="670.0" y="400.0" fill="rgb(77,62,16)">&amp;</text><text x="680.0" y="400.0" fill="rgb(170,135,34)">:</text><text x="690.0" y="400.0" fill="rgb(0,0,0)">B</text><text x="700.0" y="400.0" fill="rgb(144,114,27)">*</text><text x="720.0" y="400.0" fill="rgb(96,77,18)">@</text><text x="730.0" y="400.0" fill="rgb(2,2,0)">B</text><text x="750.0" y="400.0" fill="rgb(179,144,30)">:</text><text x="760.0" y="400.0" fill="rgb(120,96,20)">$</text><text x="770.0" y="400.0" fill="rgb(190,154,31)">.</text><text x="810.0" y="400.0" fill="rgb(173,140,25)">!</text><text x="820.0" y="400.0" fill="rgb(162,131,22)">!</text><text x="830.0" y="400.0" fill="rgb(159,129,22)">!</text><text x="840.0" y="400.0" fill="rgb(160,130,21)">!</text><text x="850.0" y="400.0" fill="rgb(148,121,19)">*</text><text x="860.0" y="400.0" fill="rgb(14,11,1)">B</text><text x="870.0" y="400.0" fill="rgb(73,60,8)">&amp;</text><text x="110.0" y="416.0" fill="rgb(172,126,81)">.</text><text x="120.0" y="416.0" fill="rgb(0,0,0)">B</text><text x="130.0" y="416.0" fill="rgb(91,67,41)">$</text><text x="190.0" y="416.0" fill="rgb(109,81,46)">%</text><text x="200.0" y="416.0" fill="rgb(0,0,0)">B</text><text x="210.0" y="416.0" fill="rgb(163,122,68)">:</text><text x="230.0" y="416.0" fill="rgb(75,56,30)">&amp;</text><text x="240.0" y="416.0" fill="rgb(1,1,0)">B</text><text x="270.0" y="416.0" fill="rgb(114,86,44)">%</text><text x="280.0" y="416.0" fill="rgb(4,3,1)">B</text><text x="290.0" y="416.0" fill="rgb(33,25,12)">S</text><text x="300.0" y="416.0" fill="rgb(0,0,0)">B</text><text x="310.0" y="416.0" fill="rgb(178,135,64)">.</text><text x="330.0" y="416.0" fill="rgb(36,27,12)">S</text><text x="340.0" y="416.0" fill="rgb(34,26,11)">S</text><text x="470.0" y="416.0" fill="rgb(60,46,17)">#</text><text x="530.0" y="416.0" fill="rgb(15,12,4)">B</text><text x="540.0" y="416.0" fill="rgb(51,40,12)">#</text><text x="580.0" y="416.0" fill="rgb(179,141,41)">:</text><text x="590.0" y="416.0" fill="rgb(0,0,0)">B</text><text x="600.0" y="416.0" fill="rgb(107,84,24)">$</text><text x="620.0" y="416.0" fill="rgb(140,111,30)">*</text><text x="630.0" y="416.0" fill="rgb(0,0,0)">B</text><text x="640.0" y="416.0" fill="rgb(162,129,33)">!</text><text x="660.0" y="416.0" fill="rgb(173,138,34)">:</text><text x="670.0" y="416.0" fill="rgb(4,3,0)">B</text><text x="680.0" y="416.0" fill="rgb(43,34,8)">S</text><text x="690.0" y="416.0" fill="rgb(0,0,0)">B</text><text x="700.0" y="416.0" fill="rgb(143,114,25)">*</text><text x="720.0" y="416.0" fill="rgb(94,76,16)">@</text><text x="730.0" y="416.0" fill="rgb(0,0,0)">B</text><text x="740.0" y="416.0" fill="rgb(203,164,33)">.</text><text x="800.0" y="416.0" fill="rgb(91,74,12)">@</text><text x="870.0" y="416.0" fill="rgb(38,31,4)">S</text><text x="110.0" y="432.0" fill="rgb(180,132,81)">.</text><text x="130.0" y="432.0" fill="rgb(109,81,48)">%</text><text x="190.0" y="432.0" fill="rgb(124,93,51)">*</text><text x="210.0" y="432.0" fill="rgb(173,130,69)">.</text><text x="230.0" y="432.0" fill="rgb(94,71,36)">$</text><text x="280.0" y="432.0" fill="rgb(79,60,28)">@</text><text x="300.0" y="432.0" fill="rgb(36,27,12)">S</text><text x="310.0" y="432.0" fill="rgb(190,145,65)">.</text><text x="330.0" y="432.0" fill="rgb(71,54,24)">&amp;</text><text x="350.0" y="432.0" fill="rgb(71,54,23)">&amp;</text><text x="360.0" y="432.0" fill="rgb(71,54,22)">&amp;</text><text x="370.0" y="432.0" fill="rgb(71,55,22)">&amp;</text><text x="380.0" y="432.0" fill="rgb(70,54,22)">&amp;</text><text x="390.0" y="432.0" fill="rgb(136,105,42)">*</text><text x="470.0" y="432.0" fill="rgb(80,63,21)">&amp;</text><text x="480.0" y="432.0" fill="rgb(39,30,10)">S</text><text x="530.0" y="432.0" fill="rgb(124,97,29)">%</text><text x="540.0" y="432.0" fill="rgb(45,35,10)">S</text><text x="550.0" y="432.0" fill="rgb(70,55,16)">&amp;</text><text x="560.0" y="432.0" fill="rgb(74,58,16)">&amp;</text><text x="570.0" y="432.0" fill="rgb(73,58,16)">&amp;</text><text x="580.0" y="432.0" fill="rgb(56,45,12)">#</text><text x="590.0" y="432.0" fill="rgb(62,49,13)">#</text><text x="600.0" y="432.0" fill="rgb(185,147,39)">:</text><text x="620.0" y="432.0" fill="rgb(156,124,31)">!</text><text x="640.0" y="432.0" fill="rgb(175,140,33)">:</text><text x="670.0" y="432.0" fill="rgb(131,105,23)">%</text><text x="700.0" y="432.0" fill="rgb(169,135,28)">!</text><text x="720.0" y="432.0" fill="rgb(124,100,19)">%</text><text x="740.0" y="432.0" fill="rgb(70,57,10)">&amp;</text><text x="750.0" y="432.0" fill="rgb(77,62,11)">&amp;</text><text x="760.0" y="432.0" fill="rgb(77,62,10)">&amp;</text><text x="770.0" y="432.0" fill="rgb(77,62,10)">&amp;</text><text x="780.0" y="432.0" fill="rgb(114,93,14)">$</text><text x="800.0" y="432.0" fill="rgb(175,143,21)">!</text><text x="810.0" y="432.0" fill="rgb(54,44,6)">#</text><text x="820.0" y="432.0" fill="rgb(64,52,7)">#</text><text x="830.0" y="432.0" fill="rgb(79,64,8)">&amp;</text><text x="840.0" y="432.0" fill="rgb(79,64,8)">&amp;</text><text x="850.0" y="432.0" fill="rgb(70,57,7)">#</text><text x="860.0" y="432.0" fill="rgb(50,41,4)">S</text><text x="870.0" y="432.0" fill="rgb(153,125,14)">*</text></svg>